# This file uses centimeters as units for non-parametric coordinates.

g default
v -0.225840 0.135227 -0.177626
v -0.225840 -0.175257 0.182297
v -0.225840 0.180840 -0.177626
v -0.225840 -0.129647 0.182297
v -0.215839 0.180840 -0.177626
v -0.215839 -0.129647 0.182297
v -0.215839 0.135227 -0.177626
v -0.215839 -0.175257 0.182297
v -0.172289 -0.216738 -0.165539
v 0.172289 -0.216738 -0.165539
v 0.172289 0.216736 -0.165539
v -0.172289 0.216736 -0.165539
v -0.172289 -0.216738 0.165539
v 0.172289 -0.216738 0.165539
v 0.172289 0.216736 0.165539
v -0.172289 0.216736 0.165539
v -0.216738 0.172173 0.165539
v -0.216738 0.172173 -0.165539
v -0.172289 0.172173 -0.216738
v 0.172289 0.172173 -0.216738
v 0.216738 0.172173 -0.165539
v 0.216738 0.172173 0.165539
v 0.172289 0.172173 0.216736
v -0.172289 0.172173 0.216736
v -0.216738 -0.172171 0.165539
v -0.216738 -0.172171 -0.165539
v -0.172289 -0.172171 -0.216738
v 0.172289 -0.172171 -0.216738
v 0.216738 -0.172171 -0.165539
v 0.216738 -0.172171 0.165539
v 0.172289 -0.172171 0.216736
v -0.172289 -0.172171 0.216736
v -0.228739 -0.228739 0.228737
v -0.172289 -0.228739 0.228737
v -0.172289 -0.172171 0.228737
v -0.228739 -0.172171 0.228737
v -0.228739 0.228737 0.228737
v -0.172289 0.228737 0.228737
v -0.172289 0.228737 0.165539
v -0.228739 0.228741 0.165539
v -0.228739 -0.172171 -0.228739
v -0.172289 -0.172171 -0.228739
v -0.172289 -0.228739 -0.228739
v -0.228739 -0.228739 -0.228739
v -0.228739 -0.228739 0.165539
v -0.172289 -0.228739 0.165539
v 0.228739 -0.228739 0.165539
v 0.228739 -0.228739 0.228737
v 0.228739 -0.172171 0.165539
v 0.228739 -0.172171 0.228737
v -0.228739 -0.172171 0.165539
v 0.172289 0.228737 0.228737
v 0.228739 0.228737 0.228737
v 0.228739 0.228741 0.165539
v 0.172289 0.228737 0.165539
v 0.172289 -0.172171 -0.228739
v 0.172289 -0.228739 -0.228739
v 0.228739 -0.172171 -0.228739
v 0.228739 -0.228739 -0.228739
v 0.172289 -0.228739 0.165539
v 0.172289 -0.228739 0.228737
v 0.172289 -0.172171 0.228737
v -0.228739 -0.228739 -0.165539
v -0.228739 -0.172171 -0.165539
v -0.172289 -0.228739 -0.165539
v 0.172289 -0.228739 -0.165539
v 0.228739 -0.228739 -0.165539
v 0.228739 -0.172171 -0.165539
v 0.228739 0.228741 -0.165539
v 0.172289 0.228737 -0.165539
v 0.228739 0.228737 -0.228739
v 0.172289 0.228741 -0.228739
v -0.172289 0.228737 -0.165539
v -0.172289 0.228741 -0.228739
v -0.228739 0.228741 -0.165539
v -0.228739 0.228737 -0.228739
v -0.228739 0.172173 0.228737
v -0.228739 0.172173 0.165539
v -0.228739 0.172173 -0.165539
v -0.228739 0.172173 -0.228739
v -0.172289 0.172173 -0.228739
v 0.172289 0.172173 -0.228739
v 0.228739 0.172173 -0.228739
v 0.228739 0.172173 -0.165539
v 0.228739 0.172173 0.165539
v 0.228739 0.172173 0.228737
v 0.172289 0.172173 0.228737
v -0.172289 0.172173 0.228737
v -0.173624 0.130260 0.224594
v 0.186300 -0.180224 0.224594
v -0.173624 0.175873 0.224594
v 0.186300 -0.134614 0.224594
v -0.173624 0.175873 0.214600
v 0.186300 -0.134614 0.214600
v -0.173624 0.130260 0.214600
v 0.186300 -0.180224 0.214600
v 0.226065 0.135227 0.182297
v 0.226065 -0.175257 -0.177626
v 0.226065 0.180836 0.182297
v 0.226065 -0.129647 -0.177626
v 0.216064 0.180836 0.182297
v 0.216064 -0.129647 -0.177626
v 0.216064 0.135227 0.182297
v 0.216064 -0.175257 -0.177626
v 0.181839 0.136604 -0.225698
v -0.178083 -0.173880 -0.225698
v 0.181839 0.182213 -0.225698
v -0.178083 -0.128271 -0.225698
v 0.181839 0.182213 -0.215698
v -0.178083 -0.128271 -0.215700
v 0.181839 0.136604 -0.215698
v -0.178083 -0.173880 -0.215700
vt 0.724380 0.000011
vt 0.990993 0.397293
vt 0.732415 0.000011
vt 0.990993 0.087411
vt 0.732415 0.027954
vt 0.998544 0.087411
vt 0.724380 0.027954
vt 0.998544 0.397293
vt 0.682111 0.000011
vt 0.988483 0.406065
vt 0.988483 0.096183
vt 0.674076 0.000011
vt 0.925256 -0.000000
vt 0.674076 0.027954
vt 0.674076 0.219008
vt 0.980932 0.096183
vt 0.925256 0.032172
vt 0.980932 0.406065
vt 0.674076 0.251180
vt 0.682111 0.027954
vt 0.000000 0.333420
vt 0.041140 0.333420
vt 0.041140 0.374647
vt 0.000000 0.374647
vt 0.337038 0.000011
vt 0.378150 0.000011
vt 0.378150 0.046039
vt 0.337038 0.046039
vt 0.000000 0.041237
vt 0.041140 0.041237
vt 0.041140 0.000011
vt 0.000000 0.000011
vt 0.337038 0.379213
vt 0.378150 0.379213
vt 0.378150 0.333185
vt 0.337038 0.333185
vt 0.670208 0.666360
vt 0.624181 0.666360
vt 0.624181 0.707556
vt 0.670208 0.707556
vt 0.287143 0.666830
vt 0.333170 0.666830
vt 0.333170 0.708027
vt 0.287143 0.708027
vt 0.629101 0.000011
vt 0.670213 0.000011
vt 0.670213 0.046039
vt 0.629101 0.046039
vt 0.292269 0.000011
vt 0.292269 0.041237
vt 0.333410 0.041237
vt 0.333410 0.000011
vt 0.629101 0.333185
vt 0.629101 0.379213
vt 0.670213 0.379213
vt 0.670213 0.333185
vt 0.292269 0.374647
vt 0.292269 0.333420
vt 0.333409 0.333420
vt 0.333409 0.374647
vt 0.000000 0.666830
vt 0.046027 0.666830
vt 0.046027 0.708027
vt 0.000000 0.708027
vt 0.337038 0.666360
vt 0.378150 0.666360
vt 0.378150 0.620332
vt 0.337038 0.620332
vt 0.629101 0.620332
vt 0.629101 0.666360
vt 0.670213 0.620332
vt 0.670213 0.666360
vt 0.383065 0.707556
vt 0.383065 0.666360
vt 0.337038 0.666360
vt 0.337038 0.707556
vt 0.629101 0.287157
vt 0.670213 0.287157
vt 0.670213 0.333185
vt 0.629101 0.333185
vt 0.378150 0.287157
vt 0.378150 0.333185
vt 0.337038 0.287157
vt 0.337038 0.333185
vt 0.629101 0.379213
vt 0.378150 0.379213
vt 0.378150 0.620332
vt 0.629101 0.620332
vt 0.378150 0.046039
vt 0.629101 0.046039
vt 0.629101 0.287157
vt 0.378150 0.287157
vt 0.287143 0.958803
vt 0.333170 0.958803
vt 0.333170 1.000000
vt 0.287143 1.000000
vt 0.046027 0.958803
vt 0.046027 1.000000
vt 0.000000 0.958803
vt 0.000000 1.000000
vt 0.000000 0.333420
vt 0.041140 0.333420
vt 0.041140 0.292194
vt 0.000000 0.292194
vt 0.292269 0.292194
vt 0.292269 0.333420
vt 0.333410 0.292194
vt 0.333410 0.333420
vt 0.383065 0.999530
vt 0.383065 0.958333
vt 0.337038 0.958333
vt 0.337038 0.999530
vt 0.624181 0.999530
vt 0.624181 0.958333
vt 0.670208 0.958333
vt 0.670208 0.999530
vt 0.292269 0.666830
vt 0.292269 0.625603
vt 0.333409 0.625603
vt 0.333409 0.666830
vt 0.041140 0.666830
vt 0.041140 0.625603
vt 0.000000 0.625603
vt 0.000000 0.666830
vt 0.046027 0.708027
vt 0.287143 0.708027
vt 0.287143 0.958803
vt 0.046027 0.958803
vt 0.292269 0.041237
vt 0.041140 0.041237
vt 0.041140 0.292194
vt 0.292269 0.292194
vt 0.624181 0.958333
vt 0.624181 0.707556
vt 0.383065 0.707556
vt 0.383065 0.958333
vt 0.041140 0.625603
vt 0.041140 0.374647
vt 0.292269 0.374647
vt 0.292269 0.625603
vt 0.719350 0.219008
vt 0.970530 0.000000
vt 0.970530 0.032172
vt 0.719350 0.251180
vt 0.950749 0.432382
vt 0.950749 0.122500
vt 0.958300 0.122500
vt 0.958300 0.432382
vt 0.928118 0.458699
vt 0.928118 0.148817
vt 0.920567 0.148817
vt 0.920567 0.458699
vt 0.714320 0.000011
vt 0.722354 0.000011
vt 0.722354 0.027954
vt 0.714320 0.027954
vt 0.692172 0.000011
vt 0.684137 0.000011
vt 0.684137 0.027954
vt 0.692172 0.027954
vt 0.744502 0.233635
vt 0.995682 0.014627
vt 0.995682 0.046799
vt 0.744502 0.265807
vt 0.970871 0.414838
vt 0.970871 0.104955
vt 0.978422 0.104955
vt 0.978422 0.414838
vt 0.948240 0.441154
vt 0.948240 0.131272
vt 0.940689 0.131272
vt 0.940689 0.441154
vt 0.734441 0.000011
vt 0.742476 0.000011
vt 0.742476 0.027954
vt 0.734441 0.027954
vt 0.702233 0.000011
vt 0.694198 0.000011
vt 0.694198 0.027954
vt 0.702233 0.027954
vt 0.744502 0.270193
vt 0.995682 0.051185
vt 0.995682 0.083357
vt 0.744502 0.302365
vt 0.960810 0.423610
vt 0.960810 0.113728
vt 0.968361 0.113728
vt 0.968361 0.423610
vt 0.938179 0.449926
vt 0.938179 0.140044
vt 0.930628 0.140044
vt 0.930628 0.449926
vt 0.744502 0.000011
vt 0.752537 0.000011
vt 0.752537 0.027954
vt 0.744502 0.027954
vt 0.712294 0.000011
vt 0.704259 0.000011
vt 0.704259 0.027954
vt 0.712294 0.027954
vn -1.000000 0.000000 0.000000
vn -1.000000 0.000000 0.000000
vn -1.000000 0.000000 0.000000
vn -1.000000 0.000000 0.000000
vn 0.000000 0.757193 0.653192
vn 0.000000 0.757193 0.653192
vn 0.000000 0.757193 0.653192
vn 0.000000 0.757193 0.653192
vn 0.000000 -0.757196 -0.653188
vn 0.000000 -0.757196 -0.653188
vn 0.000000 -0.757196 -0.653188
vn 0.000000 -0.757196 -0.653188
vn 0.000000 0.000000 1.000000
vn 0.000000 0.000000 1.000000
vn 0.000000 0.000000 1.000000
vn 0.000000 0.000000 1.000000
vn 0.000000 0.000000 -1.000000
vn 0.000000 0.000000 -1.000000
vn 0.000000 0.000000 -1.000000
vn 0.000000 0.000000 -1.000000
vn 0.000000 0.000000 1.000000
vn 0.000000 0.000000 1.000000
vn 0.000000 0.000000 1.000000
vn 0.000000 0.000000 1.000000
vn 0.000034 1.000000 0.000030
vn 0.000005 1.000000 0.000004
vn 0.000031 1.000000 0.000002
vn 0.000062 1.000000 0.000005
vn 0.000000 0.000000 -1.000000
vn 0.000000 0.000000 -1.000000
vn 0.000000 0.000000 -1.000000
vn 0.000000 0.000000 -1.000000
vn 0.000000 -1.000000 0.000000
vn 0.000000 -1.000000 0.000000
vn 0.000000 -1.000000 0.000000
vn 0.000000 -1.000000 0.000000
vn 1.000000 0.000000 0.000000
vn 1.000000 0.000000 0.000000
vn 1.000000 0.000000 0.000000
vn 1.000000 0.000000 0.000000
vn -1.000000 0.000000 0.000000
vn -1.000000 0.000000 0.000000
vn -1.000000 0.000000 0.000000
vn -1.000000 0.000000 0.000000
vn -0.000005 1.000000 0.000004
vn -0.000034 1.000000 0.000030
vn -0.000062 1.000000 0.000005
vn -0.000031 1.000000 0.000002
vn 0.000000 0.000000 -1.000000
vn 0.000000 0.000000 -1.000000
vn 0.000000 0.000000 -1.000000
vn 0.000000 0.000000 -1.000000
vn 0.000000 -1.000000 0.000000
vn 0.000000 -1.000000 0.000000
vn 0.000000 -1.000000 0.000000
vn 0.000000 -1.000000 0.000000
vn 0.000000 0.000000 1.000000
vn 0.000000 0.000000 1.000000
vn 0.000000 0.000000 1.000000
vn 0.000000 0.000000 1.000000
vn -1.000000 0.000000 0.000000
vn -1.000000 0.000000 0.000000
vn -1.000000 0.000000 0.000000
vn -1.000000 0.000000 0.000000
vn 0.000000 -1.000000 0.000000
vn 0.000000 -1.000000 0.000000
vn 0.000000 -1.000000 0.000000
vn 0.000000 -1.000000 0.000000
vn 0.000000 -1.000000 0.000000
vn 0.000000 -1.000000 0.000000
vn 0.000000 -1.000000 0.000000
vn 0.000000 -1.000000 0.000000
vn 1.000000 0.000000 0.000000
vn 1.000000 0.000000 0.000000
vn 1.000000 0.000000 0.000000
vn 1.000000 0.000000 0.000000
vn -0.000029 1.000000 0.000030
vn -0.000057 1.000000 0.000000
vn 0.000000 1.000000 0.000000
vn 0.000000 1.000000 0.000052
vn 0.000029 1.000000 0.000030
vn 0.000000 1.000000 0.000052
vn 0.000057 1.000000 0.000000
vn 0.000000 1.000000 0.000000
vn 0.000000 -1.000000 0.000000
vn 0.000000 -1.000000 0.000000
vn 0.000000 -1.000000 0.000000
vn 0.000000 -1.000000 0.000000
vn 0.000000 1.000000 0.000000
vn 0.000000 1.000000 0.000000
vn 0.000000 1.000000 0.000000
vn 0.000000 1.000000 0.000000
vn -1.000000 0.000000 0.000000
vn -1.000000 0.000000 0.000000
vn -1.000000 0.000000 0.000000
vn -1.000000 0.000000 0.000000
vn -1.000000 0.000000 0.000000
vn -1.000000 0.000000 0.000000
vn -1.000000 0.000000 0.000000
vn -1.000000 0.000000 0.000000
vn 0.000000 0.000000 -1.000000
vn 0.000000 0.000000 -1.000000
vn 0.000000 0.000000 -1.000000
vn 0.000000 0.000000 -1.000000
vn 0.000000 0.000000 -1.000000
vn 0.000000 0.000000 -1.000000
vn 0.000000 0.000000 -1.000000
vn 0.000000 0.000000 -1.000000
vn 1.000000 0.000000 0.000000
vn 1.000000 0.000000 0.000000
vn 1.000000 0.000000 0.000000
vn 1.000000 0.000000 0.000000
vn 1.000000 0.000000 0.000000
vn 1.000000 0.000000 0.000000
vn 1.000000 0.000000 0.000000
vn 1.000000 0.000000 0.000000
vn 0.000000 0.000000 1.000000
vn 0.000000 0.000000 1.000000
vn 0.000000 0.000000 1.000000
vn 0.000000 0.000000 1.000000
vn 0.000000 0.000000 1.000000
vn 0.000000 0.000000 1.000000
vn 0.000000 0.000000 1.000000
vn 0.000000 0.000000 1.000000
vn -1.000000 0.000000 0.000000
vn -1.000000 0.000000 0.000000
vn -1.000000 0.000000 0.000000
vn -1.000000 0.000000 0.000000
vn 0.000000 0.000000 -1.000000
vn 0.000000 0.000000 -1.000000
vn 0.000000 0.000000 -1.000000
vn 0.000000 0.000000 -1.000000
vn 1.000000 0.000000 0.000000
vn 1.000000 0.000000 0.000000
vn 1.000000 0.000000 0.000000
vn 1.000000 0.000000 0.000000
vn 0.000000 0.000000 1.000000
vn 0.000000 0.000000 1.000000
vn 0.000000 0.000000 1.000000
vn 0.000000 0.000000 1.000000
vn 0.000000 0.000000 -1.000000
vn 0.000000 0.000000 -1.000000
vn 0.000000 0.000000 -1.000000
vn 0.000000 0.000000 -1.000000
vn 0.000000 1.000000 0.000000
vn 0.000000 1.000000 0.000000
vn 0.000000 1.000000 0.000000
vn 0.000000 1.000000 0.000000
vn 0.000000 0.000000 -1.000000
vn 0.000000 0.000000 -1.000000
vn 0.000000 0.000000 -1.000000
vn 0.000000 0.000000 -1.000000
vn 0.000000 1.000000 0.000000
vn 0.000000 1.000000 0.000000
vn 0.000000 1.000000 0.000000
vn 0.000000 1.000000 0.000000
vn 0.000000 0.000000 1.000000
vn 0.000000 0.000000 1.000000
vn 0.000000 0.000000 1.000000
vn 0.000000 0.000000 1.000000
vn 0.000000 0.000000 1.000000
vn 0.000000 0.000000 1.000000
vn 0.000000 0.000000 1.000000
vn 0.000000 0.000000 1.000000
vn 0.000000 1.000000 0.000000
vn 0.000000 1.000000 0.000000
vn 0.000000 1.000000 0.000000
vn 0.000000 1.000000 0.000000
vn 1.000000 0.000000 0.000000
vn 1.000000 0.000000 0.000000
vn 1.000000 0.000000 0.000000
vn 1.000000 0.000000 0.000000
vn -1.000000 0.000000 0.000000
vn -1.000000 0.000000 0.000000
vn -1.000000 0.000000 0.000000
vn -1.000000 0.000000 0.000000
vn 0.000000 1.000000 0.000000
vn 0.000000 1.000000 0.000000
vn 0.000000 1.000000 0.000000
vn 0.000000 1.000000 0.000000
vn -1.000000 0.000000 0.000000
vn -1.000000 0.000000 0.000000
vn -1.000000 0.000000 0.000000
vn -1.000000 0.000000 0.000000
vn 1.000000 0.000000 0.000000
vn 1.000000 0.000000 0.000000
vn 1.000000 0.000000 0.000000
vn 1.000000 0.000000 0.000000
vn 0.000000 -1.000000 0.000000
vn 0.000000 -1.000000 0.000000
vn 0.000000 -1.000000 0.000000
vn 0.000000 -1.000000 0.000000
vn 0.000000 -1.000000 0.000000
vn 0.000000 -1.000000 0.000000
vn 0.000000 -1.000000 0.000000
vn 0.000000 -1.000000 0.000000
vn 0.000000 -1.000000 0.000000
vn 0.000000 -1.000000 0.000000
vn 0.000000 -1.000000 0.000000
vn 0.000000 -1.000000 0.000000
vn 0.000000 -1.000000 0.000000
vn 0.000000 -1.000000 0.000000
vn 0.000000 -1.000000 0.000000
vn 0.000000 -1.000000 0.000000
vn 0.000000 0.000000 -1.000000
vn 0.000000 0.000000 -1.000000
vn 0.000000 0.000000 -1.000000
vn 0.000000 0.000000 -1.000000
vn 0.000000 0.000000 1.000000
vn 0.000000 0.000000 1.000000
vn 0.000000 0.000000 1.000000
vn 0.000000 0.000000 1.000000
vn 1.000000 0.000000 0.000000
vn 1.000000 0.000000 0.000000
vn 1.000000 0.000000 0.000000
vn 1.000000 0.000000 0.000000
vn -1.000000 0.000000 0.000000
vn -1.000000 0.000000 0.000000
vn -1.000000 0.000000 0.000000
vn -1.000000 0.000000 0.000000
vn 0.000000 0.000000 1.000000
vn 0.000000 0.000000 1.000000
vn 0.000000 0.000000 1.000000
vn 0.000000 0.000000 1.000000
vn 0.000000 0.000000 -1.000000
vn 0.000000 0.000000 -1.000000
vn 0.000000 0.000000 -1.000000
vn 0.000000 0.000000 -1.000000
vn -1.000000 0.000000 0.000000
vn -1.000000 0.000000 0.000000
vn -1.000000 0.000000 0.000000
vn -1.000000 0.000000 0.000000
vn 1.000000 0.000000 0.000000
vn 1.000000 0.000000 0.000000
vn 1.000000 0.000000 0.000000
vn 1.000000 0.000000 0.000000
vn -0.000000 0.000000 1.000000
vn -0.000000 0.000000 1.000000
vn -0.000000 0.000000 1.000000
vn -0.000000 0.000000 1.000000
vn 0.653190 0.757194 0.000000
vn 0.653190 0.757194 0.000000
vn 0.653190 0.757194 0.000000
vn 0.653190 0.757194 0.000000
vn -0.653187 -0.757197 0.000000
vn -0.653187 -0.757197 0.000000
vn -0.653187 -0.757197 0.000000
vn -0.653187 -0.757197 0.000000
vn 1.000000 0.000000 0.000000
vn 1.000000 0.000000 0.000000
vn 1.000000 0.000000 0.000000
vn 1.000000 0.000000 0.000000
vn -1.000000 0.000000 0.000000
vn -1.000000 0.000000 0.000000
vn -1.000000 0.000000 0.000000
vn -1.000000 0.000000 0.000000
vn 1.000000 0.000000 0.000000
vn 1.000000 0.000000 0.000000
vn 1.000000 0.000000 0.000000
vn 1.000000 0.000000 0.000000
vn 0.000000 0.757196 -0.653188
vn 0.000000 0.757196 -0.653188
vn 0.000000 0.757196 -0.653188
vn 0.000000 0.757196 -0.653188
vn 0.000000 -0.757195 0.653189
vn 0.000000 -0.757195 0.653189
vn 0.000000 -0.757195 0.653189
vn 0.000000 -0.757195 0.653189
vn 0.000000 0.000000 -1.000000
vn 0.000000 0.000000 -1.000000
vn 0.000000 0.000000 -1.000000
vn 0.000000 0.000000 -1.000000
vn 0.000000 0.000000 1.000000
vn 0.000000 0.000000 1.000000
vn 0.000000 0.000000 1.000000
vn 0.000000 0.000000 1.000000
vn 0.000000 0.000000 -1.000000
vn 0.000000 0.000000 -1.000000
vn 0.000000 0.000000 -1.000000
vn 0.000000 0.000000 -1.000000
vn -0.653188 0.757196 0.000000
vn -0.653188 0.757196 0.000000
vn -0.653188 0.757196 0.000000
vn -0.653188 0.757196 0.000000
vn 0.653188 -0.757196 0.000000
vn 0.653188 -0.757196 0.000000
vn 0.653188 -0.757196 0.000000
vn 0.653188 -0.757196 0.000000
vn -1.000000 0.000000 0.000000
vn -1.000000 0.000000 0.000000
vn -1.000000 0.000000 0.000000
vn -1.000000 0.000000 0.000000
vn 1.000000 0.000000 0.000000
vn 1.000000 0.000000 0.000000
vn 1.000000 0.000000 0.000000
vn 1.000000 0.000000 0.000000
s off
g pasted__pasted__pCube12
f 1/15/1 2/13/2 4/17/3 3/19/4
f 3/2/5 4/4/6 6/6/7 5/8/8
f 7/10/9 8/11/10 2/16/11 1/18/12
f 2/1/13 8/3/14 6/5/15 4/7/16
f 7/9/17 1/12/18 3/14/19 5/20/20
s 1
f 33/21/21 34/22/22 35/23/23 36/24/24
s 2
f 37/25/25 38/26/26 39/27/27 40/28/28
s 3
f 41/29/29 42/30/30 43/31/31 44/32/32
s 4
f 45/33/33 46/34/34 34/35/35 33/36/36
s 5
f 48/37/37 47/38/38 49/39/39 50/40/40
s 6
f 45/41/41 33/42/42 36/43/43 51/44/44
s 2
f 52/45/45 53/46/46 54/47/47 55/48/48
s 3
f 57/49/49 56/50/50 58/51/51 59/52/52
s 4
f 61/53/53 60/54/54 47/55/55 48/56/56
s 1
f 62/57/57 61/58/58 48/59/59 50/60/60
s 2
f 38/26/26 52/45/45 55/48/48 39/27/27
s 3
f 43/31/31 42/30/30 56/50/50 57/49/49
s 4
f 34/35/35 46/34/34 60/54/54 61/53/53
s 1
f 35/23/23 34/22/22 61/58/58 62/57/57
s 6
f 44/61/61 63/62/62 64/63/63 41/64/64
s 4
f 44/65/65 43/66/66 65/67/67 63/68/68
f 66/69/69 65/67/67 43/66/66 57/70/70
f 67/71/71 66/69/69 57/70/70 59/72/72
s 5
f 68/73/73 67/74/74 59/75/75 58/76/76
s 2
f 70/77/77 69/78/78 71/79/79 72/80/80
f 73/81/81 70/77/77 72/80/80 74/82/82
f 75/83/83 73/81/81 74/82/82 76/84/84
s 6
f 63/62/62 45/41/41 51/44/44 64/63/63
s 4
f 63/68/68 65/67/67 46/34/34 45/33/33
s off
f 14/85/85 13/86/86 9/87/87 10/88/88
s 4
f 47/55/55 60/54/54 66/69/69 67/71/71
s 5
f 49/39/39 47/38/38 67/74/74 68/73/73
s 2
f 55/48/48 54/47/47 69/78/78 70/77/77
s off
f 16/89/89 15/90/90 11/91/91 12/92/92
s 2
f 40/28/28 39/27/27 73/81/81 75/83/83
s 6
f 78/93/93 77/94/94 37/95/95 40/96/96
f 79/97/97 78/93/93 40/96/96 75/98/98
f 80/99/99 79/97/97 75/98/98 76/100/100
s 3
f 76/101/101 74/102/102 81/103/103 80/104/104
f 82/105/105 81/103/103 74/102/102 72/106/106
f 83/107/107 82/105/105 72/106/106 71/108/108
s 5
f 69/109/109 84/110/110 83/111/111 71/112/112
f 54/113/113 85/114/114 84/110/110 69/109/109
f 86/115/115 85/114/114 54/113/113 53/116/116
s 1
f 52/117/117 87/118/118 86/119/119 53/120/120
f 38/121/121 88/122/122 87/118/118 52/117/117
f 77/123/123 88/122/122 38/121/121 37/124/124
s 6
f 51/44/44 36/43/43 77/94/94 78/93/93
s off
f 26/125/125 25/126/126 17/127/127 18/128/128
s 6
f 41/64/64 64/63/63 79/97/97 80/99/99
s 3
f 80/104/104 81/103/103 42/30/30 41/29/29
s off
f 28/129/129 27/130/130 19/131/131 20/132/132
s 3
f 58/51/51 56/50/50 82/105/105 83/107/107
s 5
f 84/110/110 68/73/73 58/76/76 83/111/111
s off
f 22/133/133 30/134/134 29/135/135 21/136/136
s 5
f 50/40/40 49/39/39 85/114/114 86/115/115
s 1
f 87/118/118 62/57/57 50/60/60 86/119/119
s off
f 24/137/137 32/138/138 31/139/139 23/140/140
s 1
f 36/24/24 35/23/23 88/122/122 77/123/123
s off
f 15/90/141 16/89/142 39/27/143 55/48/144
f 27/130/145 28/129/146 56/50/147 42/30/148
f 13/86/149 14/85/150 60/54/151 46/34/152
f 31/139/153 32/138/154 35/23/155 62/57/156
f 10/88/157 9/87/158 65/67/159 66/69/160
f 12/92/161 11/91/162 70/77/163 73/81/164
f 25/126/165 26/125/166 64/63/167 51/44/168
f 9/87/169 13/86/170 46/34/171 65/67/172
f 14/85/173 10/88/174 66/69/175 60/54/176
f 29/135/177 30/134/178 49/39/179 68/73/180
f 11/91/181 15/90/182 55/48/183 70/77/184
f 16/89/185 12/92/186 73/81/187 39/27/188
f 18/128/189 17/127/190 78/93/191 79/97/192
f 20/132/193 19/131/194 81/103/195 82/105/196
f 22/133/197 21/136/198 84/110/199 85/114/200
f 24/137/201 23/140/202 87/118/203 88/122/204
f 17/127/205 25/126/206 51/44/207 78/93/208
f 26/125/209 18/128/210 79/97/211 64/63/212
f 19/131/213 27/130/214 42/30/215 81/103/216
f 28/129/217 20/132/218 82/105/219 56/50/220
f 21/136/221 29/135/222 68/73/223 84/110/224
f 30/134/225 22/133/226 85/114/227 49/39/228
f 23/140/229 31/139/230 62/57/231 87/118/232
f 32/138/233 24/137/234 88/122/235 35/23/236
f 89/141/237 90/142/238 92/143/239 91/144/240
f 91/145/241 92/146/242 94/147/243 93/148/244
f 95/149/245 96/150/246 90/151/247 89/152/248
f 90/153/249 96/154/250 94/155/251 92/156/252
f 95/157/253 89/158/254 91/159/255 93/160/256
f 97/161/257 98/162/258 100/163/259 99/164/260
f 99/165/261 100/166/262 102/167/263 101/168/264
f 103/169/265 104/170/266 98/171/267 97/172/268
f 98/173/269 104/174/270 102/175/271 100/176/272
f 103/177/273 97/178/274 99/179/275 101/180/276
f 105/181/277 106/182/278 108/183/279 107/184/280
f 107/185/281 108/186/282 110/187/283 109/188/284
f 111/189/285 112/190/286 106/191/287 105/192/288
f 106/193/289 112/194/290 110/195/291 108/196/292
f 111/197/293 105/198/294 107/199/295 109/200/296
