# This file uses centimeters as units for non-parametric coordinates.

g default
v -0.132944 0.000000 0.190342
v 0.129399 0.008475 0.186717
v -0.132944 0.001561 -0.190342
v 0.132944 0.000000 -0.190342
v -0.020874 0.004883 -0.184332
v 0.042501 0.000767 0.190342
v -0.127305 0.000000 0.057131
v 0.000000 0.004883 0.022754
v 0.132944 0.000000 -0.000000
vt 0.500000 0.440230
vt 0.859489 0.500000
vt 0.859489 0.992106
vt 0.442792 0.992106
vt 0.143381 0.349925
vt 0.143381 0.992106
vt 0.143381 0.004760
vt 0.616478 0.004760
vt 0.859489 0.004760
vn -0.007457 0.999968 0.002751
vn 0.016901 0.999845 -0.004949
vn 0.033855 0.999425 -0.001778
vn -0.001376 0.999997 0.001967
vn -0.024520 0.999639 0.011016
vn -0.033615 0.999420 0.005392
vn -0.016868 0.999734 0.015745
vn -0.015412 0.999880 0.001594
vn -0.014140 0.999842 -0.010748
s 1
g pPlane1
f 8/1/1 9/2/2 4/3/3 5/4/4
f 7/5/5 8/1/1 5/4/4 3/6/6
f 1/7/7 6/8/8 8/1/1 7/5/5
f 6/8/8 2/9/9 9/2/2 8/1/1
