# This file uses centimeters as units for non-parametric coordinates.

g default
v -0.231483 -0.037409 0.326367
v -0.195804 -0.048855 0.315838
v -0.195804 -0.037409 0.340110
v -0.195804 -0.015913 0.351470
v -0.238099 -0.025430 0.352598
v -0.228754 -0.015772 0.315838
v 0.201485 -0.037815 0.321349
v 0.211698 -0.026487 0.316778
v 0.214675 -0.030952 0.351694
v 0.183829 -0.024377 0.348461
v 0.185158 -0.037409 0.343351
v 0.182261 -0.048855 0.312176
v -0.217302 0.008546 0.314469
v -0.228754 -0.003013 0.315599
v -0.238099 -0.018345 0.351144
v -0.195804 -0.004327 0.350520
v -0.195804 0.014368 0.336227
v -0.195804 0.031308 0.315277
v 0.207166 -0.004260 0.321000
v 0.182372 0.021329 0.311303
v 0.184881 -0.004638 0.340235
v 0.183777 -0.019324 0.347645
v 0.214675 -0.026713 0.353502
v 0.212152 -0.017816 0.318045
v -0.233630 -0.029374 -0.350942
v -0.226097 -0.021735 -0.310249
v -0.214645 -0.005326 -0.308485
v -0.190165 0.016885 -0.311933
v -0.190205 0.002202 -0.326343
v -0.190657 -0.022195 -0.342679
v 0.229095 -0.027942 -0.364966
v 0.190657 -0.011549 -0.349687
v 0.190657 0.012848 -0.334030
v 0.190657 0.027532 -0.315126
v 0.224819 0.004624 -0.314100
v 0.229736 -0.011089 -0.315726
v -0.214651 -0.038948 -0.308517
v -0.226097 -0.029679 -0.310364
v -0.233630 -0.034294 -0.352137
v -0.190657 -0.029756 -0.343293
v -0.190397 -0.038948 -0.331555
v -0.190227 -0.048855 -0.303664
v 0.218290 -0.037409 -0.315838
v 0.190657 -0.048855 -0.311319
v 0.190657 -0.037409 -0.338950
v 0.190657 -0.020480 -0.350353
v 0.229095 -0.033834 -0.366315
v 0.229736 -0.020445 -0.315838
v -0.233022 -0.031943 0.347891
v 0.209598 -0.038691 0.343021
v -0.233022 -0.006791 0.344004
v 0.205779 -0.019877 0.346023
v -0.225263 -0.015466 -0.342411
v 0.224017 -0.013852 -0.356701
v -0.228553 -0.038575 -0.347597
v 0.224017 -0.037564 -0.361625
v 0.063552 0.019911 -0.315126
v 0.063552 0.005228 -0.338551
v 0.063552 -0.013390 -0.353244
v 0.063552 -0.020761 -0.354508
v 0.063552 -0.037409 -0.343471
v 0.063552 -0.048855 -0.315838
v 0.077008 -0.048855 0.303619
v 0.077008 -0.037409 0.331253
v 0.077008 -0.016148 0.342474
v 0.077008 -0.006915 0.341092
v 0.077008 0.008209 0.327374
v 0.077008 0.025149 0.303058
v -0.063552 0.026743 -0.309429
v -0.063552 0.012848 -0.326969
v -0.063552 -0.011549 -0.342625
v -0.063552 -0.020445 -0.343337
v -0.063552 -0.037409 -0.331889
v -0.063552 -0.048855 -0.304256
v -0.068700 -0.048855 0.315838
v -0.068700 -0.037409 0.343471
v -0.068700 -0.015772 0.354919
v -0.068700 -0.004327 0.353884
v -0.068700 0.014368 0.339592
v -0.068700 0.031308 0.315277
v -0.191916 0.048855 -0.105279
v -0.227002 0.027433 -0.105279
v -0.238452 0.009775 -0.105279
v -0.238452 -0.009775 -0.105279
v -0.227006 -0.037409 -0.105279
v -0.191916 -0.048855 -0.105279
v -0.063552 -0.048855 -0.105279
v 0.063552 -0.048855 -0.105279
v 0.193292 -0.048855 -0.105279
v 0.222351 -0.038669 -0.105279
v 0.242229 -0.018494 -0.105279
v 0.242229 0.001056 -0.105279
v 0.228880 0.016881 -0.105279
v 0.193292 0.048011 -0.105279
v 0.063552 0.051693 -0.105279
v -0.063552 0.062102 -0.105279
v -0.186278 0.048855 0.105279
v -0.213905 0.026236 0.103551
v -0.225359 0.001493 0.093324
v -0.225359 -0.018057 0.093324
v -0.213912 -0.038605 0.103551
v -0.189975 -0.048855 0.105279
v -0.063552 -0.057137 0.093324
v 0.063552 -0.048855 0.105279
v 0.190657 -0.048855 0.105279
v 0.218290 -0.037409 0.105279
v 0.229736 -0.009775 0.105279
v 0.229736 0.009775 0.105279
v 0.224819 0.026736 0.105279
v 0.190657 0.048855 0.105279
v 0.063552 0.062102 0.105279
v -0.063552 0.062102 0.105279
v 0.208671 0.019554 -0.314456
v 0.212239 0.034674 -0.105279
v 0.208671 0.041392 0.105279
v 0.195024 0.007108 0.317625
v 0.198506 -0.014573 0.344011
v 0.206049 -0.024549 0.358032
v 0.206066 -0.029071 0.357137
v 0.203218 -0.038244 0.349703
v 0.194794 -0.041657 0.318158
v 0.208671 -0.041393 0.105279
v 0.212239 -0.042214 -0.105279
v 0.208671 -0.041393 -0.314265
v 0.219329 -0.038406 -0.362167
v 0.222641 -0.031632 -0.369190
v 0.222641 -0.024683 -0.368080
v 0.219329 -0.007005 -0.357247
v -0.202317 0.010813 -0.310224
v -0.209330 0.043175 -0.105279
v -0.199991 0.042581 0.104422
v -0.206475 0.024963 0.314876
v -0.215814 0.003868 0.346184
v -0.218333 -0.011283 0.356921
v -0.218333 -0.020636 0.358123
v -0.215814 -0.037189 0.350064
v -0.213510 -0.043175 0.321063
v -0.201854 -0.043768 0.104422
v -0.209330 -0.043175 -0.105279
v -0.202348 -0.043939 -0.306072
v -0.217898 -0.038763 -0.351148
v -0.220548 -0.032008 -0.359306
v -0.220548 -0.025758 -0.358407
v -0.210772 -0.006566 -0.337563
vt 0.960087 0.050245
vt 0.972978 0.037864
vt 0.978364 0.167507
vt 0.964525 0.168293
vt 0.988133 0.028586
vt 0.077555 0.465079
vt 0.070729 0.566300
vt 0.992199 0.166355
vt 0.295334 0.294021
vt 0.310129 0.226454
vt 0.395954 0.243274
vt 0.381955 0.310464
vt 0.896794 0.049752
vt 0.045196 0.449867
vt 0.268198 0.280166
vt 0.120183 0.460323
vt 0.283184 0.276015
vt 0.285846 0.330741
vt 0.276636 0.305085
vt 0.701092 0.476816
vt 0.737973 0.472541
vt 0.737022 0.178956
vt 0.658487 0.576475
vt 0.756122 0.051203
vt 0.747699 0.179462
vt 0.577635 0.307609
vt 0.714010 0.460380
vt 0.701218 0.460815
vt 0.574879 0.321598
vt 0.672619 0.476036
vt 0.161461 0.456243
vt 0.205556 0.550006
vt 0.131515 0.560718
vt 0.250714 0.426730
vt 0.251659 0.451744
vt 0.268716 0.552215
vt 0.250586 0.550233
vt 0.269093 0.391766
vt 0.360667 0.400774
vt 0.348588 0.449255
vt 0.374372 0.345292
vt 0.588662 0.474598
vt 0.627514 0.475275
vt 0.553314 0.578621
vt 0.513729 0.579445
vt 0.600590 0.577853
vt 0.080636 0.754692
vt 0.058351 0.775840
vt 0.043766 0.778155
vt 0.054929 0.757102
vt 0.071743 0.782289
vt 0.199314 0.885891
vt 0.195032 0.909960
vt 0.051529 0.787045
vt 0.209656 0.805395
vt 0.304591 0.799414
vt 0.291332 0.871518
vt 0.213425 0.752626
vt 0.313523 0.762725
vt 0.480600 0.950305
vt 0.483381 0.961237
vt 0.728056 0.792491
vt 0.476754 0.971945
vt 0.653806 0.770565
vt 0.684840 0.769968
vt 0.966981 0.400942
vt 0.974099 0.440423
vt 0.907090 0.460261
vt 0.904166 0.410002
vt 0.286478 0.899055
vt 0.346349 0.567146
vt 0.898662 0.180091
vt 0.994584 0.004891
vt 0.979380 0.011751
vt 0.749940 0.028117
vt 0.738999 0.461087
vt 0.265721 0.353598
vt 0.105884 0.449047
vt 0.678430 0.462156
vt 0.563962 0.352146
vt 0.131601 0.765806
vt 0.134820 0.752247
vt 0.101541 0.767226
vt 0.203438 0.774062
vt 0.599138 0.770981
vt 0.489493 0.916928
vt 0.490106 0.895109
vt 0.542755 0.773780
vt 0.978265 0.409562
vt 0.028637 0.786734
vt 0.991559 0.412919
vt 0.030014 0.779043
vt 0.750914 0.431833
vt 0.750860 0.459017
vt 0.761500 0.428750
vt 0.470043 0.992622
vt 0.393321 0.836245
vt 0.404688 0.790957
vt 0.506835 0.774257
vt 0.489368 0.825621
vt 0.379283 0.893866
vt 0.467230 0.904393
vt 0.374254 0.916730
vt 0.460673 0.932497
vt 0.839644 0.467539
vt 0.771025 0.458113
vt 0.839883 0.417991
vt 0.777333 0.413431
vt 0.822773 0.061120
vt 0.832287 0.175037
vt 0.768011 0.180255
vt 0.770781 0.065336
vt 0.495397 0.263623
vt 0.759487 0.024361
vt 0.482567 0.330405
vt 0.559447 0.319334
vt 0.477616 0.359400
vt 0.556609 0.335302
vt 0.470241 0.407015
vt 0.549897 0.382661
vt 0.458793 0.456534
vt 0.539852 0.476271
vt 0.416706 0.577426
vt 0.492668 0.581405
vt 0.248684 0.641692
vt 0.265197 0.639835
vt 0.158888 0.652046
vt 0.207904 0.647820
vt 0.101510 0.656676
vt 1.000000 0.291282
vt 0.967385 0.290262
vt 0.983572 0.290790
vt 0.901508 0.295742
vt 0.836736 0.296467
vt 0.770247 0.300392
vt 0.741492 0.304352
vt 0.751359 0.302906
vt 0.684579 0.674188
vt 0.624344 0.675640
vt 0.576479 0.676521
vt 0.526139 0.673676
vt 0.414888 0.668957
vt 0.491102 0.665902
vt 0.342065 0.642639
vt 0.990464 0.439197
vt 0.189749 0.939376
vt 0.295971 0.224498
vt 0.024207 0.453527
vt 0.753984 0.458782
vt 0.740348 0.790225
vt 0.580859 0.278349
vt 0.568027 0.278479
vt 0.745138 0.573710
vt 0.749414 0.674196
vt 0.005221 0.565809
vt 0.015632 0.664833
vt 0.740376 0.769886
vt 0.024193 0.760033
vt 0.896420 0.000001
vt 0.819446 0.009683
vt 0.276106 0.952190
vt 0.363448 0.968799
vt 0.448948 0.985721
vt 0.996031 0.439015
vt 0.747100 0.033208
vt 0.746345 0.048189
vt 0.965889 0.004924
vt 0.007472 0.464481
vt 0.176587 0.893881
vt 0.172424 0.912542
vt 0.170091 0.934069
vt 0.640050 0.790609
vt 0.663331 0.789094
vt 0.708172 0.453843
vt 0.737936 0.455694
vt 0.693356 0.456622
vt 0.660410 0.460678
vt 0.473787 0.990795
vt 0.479695 0.979738
vt 0.709171 0.791598
vt 0.067693 0.449190
vt 0.262417 0.316990
vt 0.280880 0.238343
vt 0.273224 0.258116
vt 0.192374 0.833235
vt 0.190154 0.751621
vt 0.224712 0.452082
vt 0.508977 0.806244
vt 0.626189 0.458039
vt 0.251368 0.369388
vn -0.065373 -0.996141 0.058569
vn -0.317285 -0.948120 0.019956
vn -0.344639 -0.938729 -0.003492
vn -0.066472 -0.997788 0.000365
vn -0.781166 -0.623668 -0.028587
vn -0.989460 -0.137187 -0.046348
vn -0.976799 -0.213102 0.021256
vn -0.774662 -0.632343 -0.006363
vn 0.025953 -0.292659 0.955865
vn 0.006476 -0.761421 0.648225
vn 0.022745 -0.751175 0.659711
vn 0.030160 -0.299790 0.953529
vn 0.000891 -0.997693 0.067877
vn -0.932490 -0.196756 0.302902
vn -0.925626 0.281403 0.253038
vn -0.951072 0.308801 -0.010231
vn 0.123197 -0.253647 0.959419
vn -0.003263 0.456209 0.889866
vn -0.102673 0.429649 0.897140
vn 0.942099 -0.331213 0.052422
vn 0.757475 -0.652294 0.027275
vn 0.755191 -0.654145 0.042210
vn 0.946337 -0.317745 0.059037
vn 0.393695 -0.918151 0.044754
vn 0.390057 -0.920652 0.016003
vn -0.155735 -0.426204 0.891121
vn 0.910878 -0.406529 0.070963
vn 0.915244 0.343484 0.210588
vn 0.056206 0.524140 0.849776
vn 0.978987 0.175157 0.104424
vn -0.816515 0.576534 0.030199
vn -0.812138 0.582333 0.036339
vn -0.958030 0.283874 0.039920
vn -0.663595 0.743255 0.084932
vn -0.089750 0.981413 0.169630
vn -0.112888 0.992073 0.055204
vn -0.618724 0.784790 0.035850
vn -0.034166 0.726528 0.686287
vn 0.038251 0.733608 0.678496
vn -0.004847 0.979997 0.198952
vn 0.033841 0.467943 0.883110
vn 0.604709 0.770546 0.201459
vn 0.810276 0.560270 0.171905
vn 0.799619 0.596957 0.065208
vn 0.607243 0.791791 0.065753
vn 0.974622 0.213516 0.067253
vn -0.940423 0.330468 -0.079971
vn -0.895467 0.419149 -0.149844
vn -0.862449 -0.499318 -0.082849
vn -0.933680 -0.357812 -0.014588
vn 0.060774 0.534603 -0.842915
vn 0.026288 0.460963 -0.887030
vn 0.097900 -0.470480 -0.876963
vn 0.244741 -0.399768 -0.883339
vn -0.044311 0.645753 -0.762259
vn -0.035789 0.678171 -0.734033
vn -0.049162 0.471409 -0.880544
vn -0.115652 0.970327 -0.212344
vn -0.012640 0.978510 -0.205810
vn -0.217673 0.370449 -0.902988
vn 0.967360 0.186929 -0.171093
vn 0.903707 -0.427935 -0.013599
vn -0.462525 -0.284896 -0.839586
vn 0.959593 0.272170 -0.071444
vn 0.904074 -0.426292 -0.030411
vn -0.035448 -0.998362 -0.044904
vn 0.024210 -0.874090 -0.485160
vn -0.020672 -0.835387 -0.549273
vn -0.001826 -0.998949 -0.045793
vn -0.036192 -0.410499 -0.911143
vn -0.020520 0.997688 0.064785
vn 0.000238 -0.999999 -0.001155
vn -0.723992 -0.640877 0.255170
vn 0.029918 -0.792166 0.609572
vn -0.014798 -0.840307 0.541908
vn 0.636023 -0.767770 -0.077488
vn -0.396480 0.745789 0.535352
vn -0.716149 0.655520 0.239634
vn 0.654776 0.685769 0.317788
vn 0.310730 0.724350 0.615438
vn -0.180961 0.785916 -0.591260
vn -0.772741 0.621282 -0.129928
vn -0.733441 0.662600 -0.151739
vn -0.572265 0.801477 -0.173631
vn 0.787374 0.611031 -0.081754
vn 0.841588 0.483926 -0.239887
vn 0.190935 0.707306 -0.680634
vn 0.590523 0.797982 -0.120443
vn -0.297227 -0.954348 -0.029589
vn 0.062066 -0.937260 -0.343063
vn -0.654692 -0.755852 -0.008156
vn -0.470039 -0.881453 0.045867
vn 0.661368 -0.749993 -0.010124
vn 0.670877 -0.738767 0.064400
vn 0.312915 -0.949255 -0.031613
vn -0.239220 -0.844762 -0.478697
vn -0.020240 0.700225 -0.713635
vn 0.018992 0.981314 -0.191473
vn 0.053224 0.984020 -0.169915
vn 0.008573 0.728531 -0.684960
vn -0.024203 0.474653 -0.879841
vn -0.064876 0.473671 -0.878309
vn -0.025209 -0.378495 -0.925260
vn -0.088727 -0.366103 -0.926335
vn -0.016487 -0.803663 -0.594857
vn -0.010018 -0.839026 -0.543999
vn -0.001496 -0.998646 -0.052007
vn 0.046337 -0.997957 -0.043986
vn 0.014617 -0.998458 0.053559
vn 0.016857 -0.999857 0.001030
vn 0.053091 -0.998588 0.001928
vn 0.058331 -0.997096 0.048969
vn 0.007394 -0.785991 0.618194
vn -0.059903 -0.799197 0.598077
vn 0.023968 -0.294338 0.955401
vn -0.118588 -0.299416 0.946724
vn 0.049805 0.486337 0.872351
vn -0.030187 0.466960 0.883763
vn 0.046782 0.738623 0.672493
vn 0.047479 0.711058 0.701529
vn 0.047677 0.975154 0.216338
vn 0.139341 0.964668 0.223605
vn 0.049830 0.996570 0.066068
vn 0.132420 0.989360 0.060267
vn -0.583471 0.810175 -0.056378
vn -0.127681 0.988606 -0.079722
vn -0.948975 0.315110 -0.012320
vn -0.795607 0.604627 -0.037888
vn -0.961097 -0.275808 0.014913
vn -0.718732 -0.695201 0.010917
vn -0.053573 -0.998523 -0.009025
vn -0.341247 -0.939973 0.000921
vn -0.000000 -0.999949 -0.010149
vn 0.008239 -0.999954 -0.004974
vn 0.048514 -0.998823 -0.000000
vn 0.701072 -0.713040 0.008528
vn 0.356205 -0.934408 0.000000
vn 0.925836 -0.377768 0.010882
vn 0.964489 0.263995 -0.008238
vn 0.785138 0.618510 -0.031701
vn 0.609374 0.791813 -0.041183
vn 0.038718 0.995731 -0.083785
vn 0.092981 0.993080 -0.071743
vn -0.022012 0.996030 -0.086252
s 1
g pCube3
f 2/1/1 137/2/2 138/3/3 102/4/4
f 1/168/5 6/6/6 100/7/7 101/155/8
f 4/9/9 3/10/10 76/11/11 77/12/12
f 3/167/10 2/1/1 75/13/13 76/159/11
f 6/6/6 5/14/14 15/181/15 14/16/16
f 135/17/17 4/9/9 16/18/18 134/19/19
f 8/20/20 7/21/21 106/153/22 107/23/23
f 7/166/21 121/24/24 122/25/25 106/22/22
f 119/174/26 9/27/27 23/28/28 118/176/29
f 9/27/27 8/20/20 24/30/30 23/28/28
f 14/16/16 13/31/31 98/32/32 99/33/33
f 132/187/34 18/35/35 97/36/36 131/37/37
f 18/35/35 17/38/38 79/39/39 80/40/40
f 17/38/38 16/18/18 78/41/41 79/39/39
f 116/42/42 19/43/43 109/44/44 115/45/45
f 19/43/43 24/30/30 108/46/46 109/44/44
f 26/47/47 25/48/48 39/49/49 38/50/50
f 143/169/51 30/52/52 40/53/53 142/170/54
f 30/52/52 29/55/55 70/56/56 71/57/57
f 29/55/55 28/58/58 69/59/59 70/56/56
f 127/60/60 31/61/61 47/179/62 126/63/63
f 31/180/61 36/64/64 48/65/65 47/62/62
f 42/66/66 41/67/67 73/68/68 74/69/69
f 41/146/67 40/53/53 72/70/70 73/161/68
f 4/9/9 77/12/12 78/41/41 16/18/18
f 18/35/35 80/40/40 112/71/71 97/36/36
f 30/52/52 71/57/57 72/70/70 40/53/53
f 102/4/4 103/72/72 75/13/13 2/1/1
f 8/20/20 107/23/23 108/46/46 24/30/30
f 100/7/7 6/6/6 14/16/16 99/33/33
f 5/14/14 6/6/6 1/168/5 49/148/73
f 137/2/2 2/1/1 3/167/10 136/74/74
f 3/10/10 4/9/9 135/17/17 136/147/74
f 120/75/75 121/24/24 7/166/21 50/165/76
f 7/21/21 8/20/20 9/27/27 50/76/76
f 9/27/27 119/174/26 120/175/75 50/76/76
f 17/38/38 18/35/35 132/34/34 133/77/77
f 13/31/31 14/16/16 15/181/15 51/78/78
f 134/19/19 16/18/18 17/38/38 133/77/77
f 23/28/28 24/30/30 19/43/43 52/79/79
f 19/43/43 116/42/42 117/177/80 52/79/79
f 117/177/80 118/176/29 23/28/28 52/79/79
f 29/55/55 30/52/52 143/169/51 144/185/81
f 25/48/48 26/47/47 27/82/82 53/83/83
f 144/185/81 129/84/84 28/58/58 29/55/55
f 35/85/85 36/64/64 31/180/61 54/173/86
f 31/61/61 127/60/60 128/87/87 54/86/86
f 128/172/87 113/88/88 35/85/85 54/173/86
f 41/67/67 42/66/66 140/89/89 141/145/90
f 37/158/91 38/50/50 39/49/49 55/92/92
f 142/170/54 40/53/53 41/146/67 141/171/90
f 47/62/62 48/65/65 43/157/93 56/150/94
f 43/93/93 124/95/95 125/149/96 56/94/94
f 125/96/96 126/63/63 47/179/62 56/178/94
f 58/97/97 57/98/98 34/99/99 33/100/100
f 59/101/101 58/97/97 33/100/100 32/102/102
f 60/103/103 59/101/101 32/102/102 46/104/104
f 61/162/105 60/103/103 46/104/104 45/163/106
f 62/107/107 61/105/105 45/106/106 44/108/108
f 63/109/109 104/110/110 105/111/111 12/112/112
f 64/160/113 63/109/109 12/112/112 11/114/114
f 65/115/115 64/113/113 11/152/114 10/116/116
f 66/117/117 65/115/115 10/116/116 22/118/118
f 67/119/119 66/117/117 22/118/118 21/120/120
f 68/121/121 67/119/119 21/120/120 20/122/122
f 111/123/123 68/121/121 20/122/122 110/124/124
f 70/56/56 69/59/59 57/98/98 58/97/97
f 71/57/57 70/56/56 58/97/97 59/101/101
f 72/70/70 71/57/57 59/101/101 60/103/103
f 73/161/68 72/70/70 60/103/103 61/162/105
f 74/69/69 73/68/68 61/105/105 62/107/107
f 75/13/13 103/72/72 104/110/110 63/109/109
f 76/159/11 75/13/13 63/109/109 64/160/113
f 77/12/12 76/11/11 64/113/113 65/115/115
f 78/41/41 77/12/12 65/115/115 66/117/117
f 79/39/39 78/41/41 66/117/117 67/119/119
f 80/40/40 79/39/39 67/119/119 68/121/121
f 112/71/71 80/40/40 68/121/121 111/123/123
f 130/125/125 81/126/126 28/58/58 129/186/84
f 83/127/127 82/128/128 27/82/82 26/47/47
f 38/50/50 84/129/129 83/127/127 26/47/47
f 85/156/130 84/129/129 38/50/50 37/158/91
f 86/131/131 139/132/132 140/89/89 42/66/66
f 42/66/66 74/69/69 87/133/133 86/131/131
f 88/134/134 87/133/133 74/69/69 62/107/107
f 89/135/135 88/134/134 62/107/107 44/108/108
f 90/136/136 123/137/137 124/95/95 43/93/93
f 91/138/138 90/154/136 43/157/93 48/65/65
f 92/139/139 91/138/138 48/65/65 36/64/64
f 93/140/140 92/139/139 36/64/64 35/85/85
f 114/141/141 93/140/140 35/85/85 113/88/88
f 57/98/98 95/142/142 94/143/143 34/99/99
f 69/59/59 96/144/144 95/142/142 57/98/98
f 81/126/126 96/144/144 69/59/59 28/58/58
f 131/37/37 97/36/36 81/126/126 130/125/125
f 99/33/33 98/32/32 82/128/128 83/127/127
f 84/129/129 100/7/7 99/33/33 83/127/127
f 101/155/8 100/7/7 84/129/129 85/156/130
f 102/4/4 138/3/3 139/132/132 86/131/131
f 86/131/131 87/133/133 103/72/72 102/4/4
f 104/110/110 103/72/72 87/133/133 88/134/134
f 105/111/111 104/110/110 88/134/134 89/135/135
f 106/22/22 122/25/25 123/137/137 90/136/136
f 107/23/23 106/153/22 90/154/136 91/138/138
f 108/46/46 107/23/23 91/138/138 92/139/139
f 109/44/44 108/46/46 92/139/139 93/140/140
f 115/45/45 109/44/44 93/140/140 114/141/141
f 95/142/142 111/123/123 110/124/124 94/143/143
f 96/144/144 112/71/71 111/123/123 95/142/142
f 97/36/36 112/71/71 96/144/144 81/126/126
f 94/143/143 114/141/141 113/88/88 34/99/99
f 110/124/124 115/45/45 114/141/141 94/143/143
f 20/122/122 116/42/42 115/45/45 110/124/124
f 117/177/80 116/42/42 20/122/122 21/189/120
f 21/120/120 22/118/118 118/29/29 117/80/80
f 10/116/116 119/26/26 118/29/29 22/118/118
f 120/151/75 119/26/26 10/116/116 11/152/114
f 11/114/114 12/112/112 121/24/24 120/75/75
f 122/25/25 121/24/24 12/112/112 105/111/111
f 123/137/137 122/25/25 105/111/111 89/135/135
f 124/95/95 123/137/137 89/135/135 44/108/108
f 125/149/96 124/95/95 44/108/108 45/106/106
f 45/163/106 46/104/104 126/63/63 125/96/96
f 32/102/102 127/60/60 126/63/63 46/104/104
f 128/87/87 127/60/60 32/102/102 33/100/100
f 33/100/100 34/99/99 113/188/88 128/87/87
f 82/128/128 130/125/125 129/186/84 27/82/82
f 98/32/32 131/37/37 130/125/125 82/128/128
f 13/31/31 132/187/34 131/37/37 98/32/32
f 133/77/77 132/34/34 13/190/31 51/182/78
f 15/15/15 134/19/19 133/77/77 51/182/78
f 5/184/14 135/17/17 134/19/19 15/15/15
f 136/147/74 135/17/17 5/184/14 49/183/73
f 1/5/5 137/2/2 136/74/74 49/73/73
f 138/3/3 137/2/2 1/5/5 101/8/8
f 139/132/132 138/3/3 101/8/8 85/130/130
f 140/89/89 139/132/132 85/130/130 37/91/91
f 141/145/90 140/89/89 37/91/91 55/164/92
f 39/49/49 142/54/54 141/90/90 55/92/92
f 25/48/48 143/51/51 142/54/54 39/49/49
f 144/81/81 143/51/51 25/48/48 53/83/83
f 27/82/82 129/186/84 144/81/81 53/83/83
