# This file uses centimeters as units for non-parametric coordinates.

g default
v -0.215776 -0.146530 0.047638
v -0.190710 -0.146530 0.047638
v -0.215776 0.134338 0.047638
v -0.190710 0.134338 0.047638
v -0.215776 0.134338 -0.047638
v -0.190710 0.134338 -0.047638
v -0.215776 -0.146530 -0.047638
v -0.190710 -0.146530 -0.047638
v -0.215776 0.142868 -0.028587
v -0.215776 -0.146530 -0.028587
v -0.190710 -0.146530 -0.028587
v -0.190710 0.142868 -0.028587
v -0.215776 0.146530 -0.009529
v -0.215776 -0.146530 -0.009529
v -0.190710 -0.146530 -0.009529
v -0.190710 0.146530 -0.009529
v -0.215776 0.146530 0.009529
v -0.215776 -0.146530 0.009529
v -0.190710 -0.146530 0.009529
v -0.190710 0.146530 0.009529
v -0.215776 0.142868 0.028587
v -0.215776 -0.146530 0.028587
v -0.190710 -0.146530 0.028587
v -0.190710 0.142868 0.028587
v 0.193791 0.084717 0.038345
v 0.193791 0.102798 0.038345
v -0.192741 0.084717 0.038345
v -0.192741 0.102798 0.038345
v -0.192741 0.084717 -0.043839
v -0.192741 0.102798 -0.043839
v 0.193791 0.084717 -0.043839
v 0.193791 0.102798 -0.043839
v 0.193791 -0.007713 0.038345
v 0.193791 0.010368 0.038345
v -0.192741 -0.007713 0.038345
v -0.192741 0.010368 0.038345
v -0.192741 -0.007713 -0.043839
v -0.192741 0.010368 -0.043839
v 0.193791 -0.007713 -0.043839
v 0.193791 0.010368 -0.043839
v 0.193791 -0.087677 0.038345
v 0.193791 -0.069588 0.038345
v -0.192741 -0.087677 0.038345
v -0.192741 -0.069588 0.038345
v -0.192741 -0.087677 -0.043839
v -0.192741 -0.069588 -0.043839
v 0.193791 -0.087677 -0.043839
v 0.193791 -0.069588 -0.043839
v 0.190709 -0.146530 0.047638
v 0.215776 -0.146530 0.047638
v 0.190709 0.134338 0.047638
v 0.215776 0.134338 0.047638
v 0.190709 0.134338 -0.047638
v 0.215776 0.134338 -0.047638
v 0.190709 -0.146530 -0.047638
v 0.215776 -0.146530 -0.047638
v 0.190709 0.142868 -0.028587
v 0.190709 -0.146530 -0.028587
v 0.215776 -0.146530 -0.028587
v 0.215776 0.142868 -0.028587
v 0.190709 0.146530 -0.009529
v 0.190709 -0.146530 -0.009529
v 0.215776 -0.146530 -0.009529
v 0.215776 0.146530 -0.009529
v 0.190709 0.146530 0.009529
v 0.190709 -0.146530 0.009529
v 0.215776 -0.146530 0.009529
v 0.215776 0.146530 0.009529
v 0.190709 0.142868 0.028587
v 0.190709 -0.146530 0.028587
v 0.215776 -0.146530 0.028587
v 0.215776 0.142868 0.028587
vt 0.853689 0.000000
vt 0.990607 0.000000
vt 0.624434 0.429438
vt 0.990607 0.033108
vt 0.963968 0.033108
vt 0.963968 0.000000
vt 0.742786 0.429438
vt 0.961619 0.066216
vt 0.513531 0.000000
vt 0.961619 0.098594
vt 0.987670 0.098594
vt 0.602253 0.000000
vt 0.987670 0.066216
vt 0.764967 0.438934
vt 0.535712 0.000000
vt 0.857414 0.066216
vt 0.857414 0.098594
vt 0.787147 0.443016
vt 0.557892 0.000000
vt 0.883465 0.098594
vt 0.883465 0.066216
vt 0.809328 0.443016
vt 0.580073 0.000000
vt 0.884052 0.000000
vt 0.602253 0.438934
vt 0.580073 0.443016
vt 0.884052 0.033108
vt 0.852829 0.429791
vt 0.624434 0.000000
vt 0.831508 0.000000
vt 0.882391 0.429791
vt 0.857414 0.033108
vt 0.831508 0.438934
vt 0.857414 0.000000
vt 0.557892 0.443016
vt 0.909516 0.098594
vt 0.809328 0.000000
vt 0.909516 0.066216
vt 0.535712 0.438934
vt 0.910691 0.000000
vt 0.787147 0.000000
vt 0.910691 0.033108
vt 0.882391 0.850343
vt 0.513531 0.429438
vt 0.935568 0.098594
vt 0.764967 0.000000
vt 0.852829 0.850343
vt 0.935568 0.066216
vt 0.609818 0.856232
vt 0.937329 0.000000
vt 0.639381 0.856232
vt 0.742786 0.000000
vt 0.639381 0.435680
vt 0.937329 0.033108
vt 0.609818 0.435680
vt 0.853689 0.429438
vt 0.534000 0.930659
vt 0.534000 0.953772
vt 0.000000 0.953772
vt 0.000000 0.930659
vt 0.965949 0.203505
vt 0.965949 0.227682
vt 0.857414 0.227682
vt 0.857414 0.203505
vt 0.000000 0.861317
vt 0.000000 0.884431
vt 0.534000 0.884431
vt 0.534000 0.861317
vt 0.857414 0.130972
vt 0.857414 0.155150
vt 0.965949 0.155150
vt 0.965949 0.130972
vt 0.509602 0.000000
vt 0.509602 0.110066
vt 0.000000 0.110066
vt 0.000000 0.000000
vt 0.509602 0.440264
vt 0.509602 0.330198
vt 0.000000 0.330198
vt 0.000000 0.440264
vt 0.534000 0.953772
vt 0.534000 0.976886
vt 0.000000 0.976886
vt 0.000000 0.953772
vt 0.965949 0.227682
vt 0.965949 0.251860
vt 0.857414 0.251860
vt 0.857414 0.227682
vt 0.000000 0.884431
vt 0.000000 0.907545
vt 0.534000 0.907545
vt 0.534000 0.884431
vt 0.857414 0.155150
vt 0.857414 0.179327
vt 0.965949 0.179327
vt 0.965949 0.155150
vt 0.509602 0.110066
vt 0.509602 0.220132
vt 0.000000 0.220132
vt 0.000000 0.110066
vt 0.509602 0.550330
vt 0.509602 0.440264
vt 0.000000 0.440264
vt 0.000000 0.550330
vt 0.534000 0.976886
vt 0.534000 1.000000
vt 0.000000 1.000000
vt 0.000000 0.976886
vt 0.965949 0.251860
vt 0.965949 0.276037
vt 0.857414 0.276037
vt 0.857414 0.251860
vt 0.000000 0.907545
vt 0.000000 0.930659
vt 0.534000 0.930659
vt 0.534000 0.907545
vt 0.857414 0.179327
vt 0.857414 0.203505
vt 0.965949 0.203505
vt 0.965949 0.179327
vt 0.509602 0.220132
vt 0.509602 0.330198
vt 0.000000 0.330198
vt 0.000000 0.220132
vt 0.509602 0.660396
vt 0.509602 0.550330
vt 0.000000 0.550330
vt 0.000000 0.660396
vt 0.513531 0.440765
vt 0.543094 0.440765
vt 0.543094 0.861317
vt 0.513531 0.861317
vt 0.990607 0.033108
vt 0.990607 0.066216
vt 0.963968 0.066216
vt 0.963968 0.033108
vt 0.820733 0.861462
vt 0.850295 0.861462
vt 0.850295 0.440910
vt 0.820733 0.440910
vt 0.961619 0.098594
vt 0.961619 0.130972
vt 0.987670 0.130972
vt 0.987670 0.098594
vt 0.739061 0.000000
vt 0.716881 0.000000
vt 0.716881 0.438934
vt 0.739061 0.429438
vt 0.785657 0.443016
vt 0.807838 0.443016
vt 0.807838 0.872454
vt 0.785657 0.881950
vt 0.696935 0.443016
vt 0.719116 0.443016
vt 0.719116 0.881950
vt 0.696935 0.872454
vt 0.857414 0.098594
vt 0.857414 0.130972
vt 0.883465 0.130972
vt 0.883465 0.098594
vt 0.650339 0.438934
vt 0.650339 0.000000
vt 0.628159 0.000000
vt 0.628159 0.429438
vt 0.884052 0.033108
vt 0.884052 0.066216
vt 0.857414 0.066216
vt 0.857414 0.033108
vt 0.741296 0.443016
vt 0.741296 0.886032
vt 0.909516 0.130972
vt 0.909516 0.098594
vt 0.672520 0.443016
vt 0.672520 0.000000
vt 0.910691 0.033108
vt 0.910691 0.066216
vt 0.763477 0.443016
vt 0.763477 0.886032
vt 0.935568 0.130972
vt 0.935568 0.098594
vt 0.694700 0.443016
vt 0.694700 0.000000
vt 0.937329 0.033108
vt 0.937329 0.066216
vn 0.000000 0.000000 1.000000
vn 0.000000 0.000000 1.000000
vn 0.000000 0.000000 1.000000
vn 0.000000 0.000000 1.000000
vn 0.000000 0.912693 0.408647
vn 0.000000 0.912693 0.408647
vn 0.000000 0.952446 0.304706
vn 0.000000 0.952446 0.304706
vn 0.000000 0.000000 -1.000000
vn 0.000000 0.000000 -1.000000
vn 0.000000 0.000000 -1.000000
vn 0.000000 0.000000 -1.000000
vn 0.000000 -1.000000 0.000000
vn 0.000000 -1.000000 0.000000
vn 0.000000 -1.000000 0.000000
vn 0.000000 -1.000000 0.000000
vn 1.000000 0.000000 0.000000
vn 1.000000 0.000000 0.000000
vn 1.000000 0.000000 0.000000
vn 1.000000 0.000000 0.000000
vn -1.000000 0.000000 0.000000
vn -1.000000 0.000000 0.000000
vn -1.000000 0.000000 0.000000
vn -1.000000 0.000000 0.000000
vn -1.000000 0.000000 0.000000
vn -1.000000 0.000000 0.000000
vn -1.000000 0.000000 0.000000
vn -1.000000 0.000000 0.000000
vn 0.000000 -1.000000 0.000000
vn 0.000000 -1.000000 0.000000
vn 0.000000 -1.000000 0.000000
vn 0.000000 -1.000000 0.000000
vn 1.000000 0.000000 0.000000
vn 1.000000 0.000000 0.000000
vn 1.000000 0.000000 0.000000
vn 1.000000 0.000000 0.000000
vn 0.000000 0.952446 -0.304706
vn 0.000000 0.952446 -0.304706
vn 0.000000 0.912693 -0.408647
vn 0.000000 0.912693 -0.408647
vn -1.000000 0.000000 0.000000
vn -1.000000 0.000000 0.000000
vn 0.000000 -1.000000 0.000000
vn 0.000000 -1.000000 0.000000
vn 1.000000 0.000000 0.000000
vn 1.000000 0.000000 0.000000
vn 0.000000 0.995416 -0.095636
vn 0.000000 0.995416 -0.095636
vn -1.000000 0.000000 0.000000
vn -1.000000 0.000000 0.000000
vn 0.000000 -1.000000 0.000000
vn 0.000000 -1.000000 0.000000
vn 1.000000 0.000000 0.000000
vn 1.000000 0.000000 0.000000
vn 0.000000 0.995416 0.095636
vn 0.000000 0.995416 0.095636
vn 0.000000 0.000000 1.000000
vn 0.000000 0.000000 1.000000
vn 0.000000 0.000000 1.000000
vn 0.000000 0.000000 1.000000
vn -1.000000 0.000000 0.000000
vn -1.000000 0.000000 0.000000
vn -1.000000 0.000000 0.000000
vn -1.000000 0.000000 0.000000
vn 0.000000 0.000000 -1.000000
vn 0.000000 0.000000 -1.000000
vn 0.000000 0.000000 -1.000000
vn 0.000000 0.000000 -1.000000
vn 1.000000 0.000000 0.000000
vn 1.000000 0.000000 0.000000
vn 1.000000 0.000000 0.000000
vn 1.000000 0.000000 0.000000
vn 0.000000 1.000000 0.000000
vn 0.000000 1.000000 0.000000
vn 0.000000 1.000000 0.000000
vn 0.000000 1.000000 0.000000
vn 0.000000 -1.000000 0.000000
vn 0.000000 -1.000000 0.000000
vn 0.000000 -1.000000 0.000000
vn 0.000000 -1.000000 0.000000
vn 0.000000 0.000000 1.000000
vn 0.000000 0.000000 1.000000
vn 0.000000 0.000000 1.000000
vn 0.000000 0.000000 1.000000
vn -1.000000 0.000000 0.000000
vn -1.000000 0.000000 0.000000
vn -1.000000 0.000000 0.000000
vn -1.000000 0.000000 0.000000
vn 0.000000 0.000000 -1.000000
vn 0.000000 0.000000 -1.000000
vn 0.000000 0.000000 -1.000000
vn 0.000000 0.000000 -1.000000
vn 1.000000 0.000000 0.000000
vn 1.000000 0.000000 0.000000
vn 1.000000 0.000000 0.000000
vn 1.000000 0.000000 0.000000
vn 0.000000 1.000000 0.000000
vn 0.000000 1.000000 0.000000
vn 0.000000 1.000000 0.000000
vn 0.000000 1.000000 0.000000
vn 0.000000 -1.000000 0.000000
vn 0.000000 -1.000000 0.000000
vn 0.000000 -1.000000 0.000000
vn 0.000000 -1.000000 0.000000
vn 0.000000 0.000000 1.000000
vn 0.000000 0.000000 1.000000
vn 0.000000 0.000000 1.000000
vn 0.000000 0.000000 1.000000
vn -1.000000 0.000000 0.000000
vn -1.000000 0.000000 0.000000
vn -1.000000 0.000000 0.000000
vn -1.000000 0.000000 0.000000
vn 0.000000 0.000000 -1.000000
vn 0.000000 0.000000 -1.000000
vn 0.000000 0.000000 -1.000000
vn 0.000000 0.000000 -1.000000
vn 1.000000 0.000000 0.000000
vn 1.000000 0.000000 0.000000
vn 1.000000 0.000000 0.000000
vn 1.000000 0.000000 0.000000
vn 0.000000 1.000000 0.000000
vn 0.000000 1.000000 0.000000
vn 0.000000 1.000000 0.000000
vn 0.000000 1.000000 0.000000
vn 0.000000 -1.000000 0.000000
vn 0.000000 -1.000000 0.000000
vn 0.000000 -1.000000 0.000000
vn 0.000000 -1.000000 0.000000
vn 0.000000 0.000000 1.000000
vn 0.000000 0.000000 1.000000
vn 0.000000 0.000000 1.000000
vn 0.000000 0.000000 1.000000
vn 0.000000 0.912693 0.408647
vn 0.000000 0.912693 0.408647
vn 0.000000 0.952446 0.304706
vn 0.000000 0.952446 0.304706
vn 0.000000 0.000000 -1.000000
vn 0.000000 0.000000 -1.000000
vn 0.000000 0.000000 -1.000000
vn 0.000000 0.000000 -1.000000
vn 0.000000 -1.000000 0.000000
vn 0.000000 -1.000000 0.000000
vn 0.000000 -1.000000 0.000000
vn 0.000000 -1.000000 0.000000
vn 1.000000 0.000000 0.000000
vn 1.000000 0.000000 0.000000
vn 1.000000 0.000000 0.000000
vn 1.000000 0.000000 0.000000
vn -1.000000 0.000000 0.000000
vn -1.000000 0.000000 0.000000
vn -1.000000 0.000000 0.000000
vn -1.000000 0.000000 0.000000
vn -1.000000 0.000000 0.000000
vn -1.000000 0.000000 0.000000
vn -1.000000 0.000000 0.000000
vn -1.000000 0.000000 0.000000
vn 0.000000 -1.000000 0.000000
vn 0.000000 -1.000000 0.000000
vn 0.000000 -1.000000 0.000000
vn 0.000000 -1.000000 0.000000
vn 1.000000 0.000000 0.000000
vn 1.000000 0.000000 0.000000
vn 1.000000 0.000000 0.000000
vn 1.000000 0.000000 0.000000
vn 0.000000 0.952446 -0.304706
vn 0.000000 0.952446 -0.304706
vn 0.000000 0.912693 -0.408647
vn 0.000000 0.912693 -0.408647
vn -1.000000 0.000000 0.000000
vn -1.000000 0.000000 0.000000
vn 0.000000 -1.000000 0.000000
vn 0.000000 -1.000000 0.000000
vn 1.000000 0.000000 0.000000
vn 1.000000 0.000000 0.000000
vn 0.000000 0.995416 -0.095636
vn 0.000000 0.995416 -0.095636
vn -1.000000 0.000000 0.000000
vn -1.000000 0.000000 0.000000
vn 0.000000 -1.000000 0.000000
vn 0.000000 -1.000000 0.000000
vn 1.000000 0.000000 0.000000
vn 1.000000 0.000000 0.000000
vn 0.000000 0.995416 0.095636
vn 0.000000 0.995416 0.095636
s off
g pCube11
f 1/28/1 2/31/2 4/43/3 3/47/4
s 1
f 3/2/5 4/4/6 24/5/7 21/6/8
s off
f 5/49/9 6/51/10 8/53/11 7/55/12
s 2
f 22/8/13 23/10/14 2/11/15 1/13/16
s 3
f 2/29/17 23/12/18 24/25/19 4/3/20
s 4
f 22/30/21 1/1/22 3/56/23 21/33/24
f 7/52/25 10/46/26 9/14/27 5/7/28
s 2
f 7/16/29 8/17/30 11/20/31 10/21/32
s 3
f 12/39/33 11/15/34 8/9/35 6/44/36
s 1
f 9/24/37 12/27/38 6/32/39 5/34/40
s 4
f 10/46/26 14/41/41 13/18/42 9/14/27
s 2
f 10/21/32 11/20/31 15/36/43 14/38/44
s 3
f 16/35/45 15/19/46 11/15/34 12/39/33
s 1
f 13/40/47 16/42/48 12/27/38 9/24/37
s 4
f 14/41/41 18/37/49 17/22/50 13/18/42
s 2
f 14/38/44 15/36/43 19/45/51 18/48/52
s 3
f 20/26/53 19/23/54 15/19/46 16/35/45
s 1
f 17/50/55 20/54/56 16/42/48 13/40/47
s 4
f 18/37/49 22/30/21 21/33/24 17/22/50
s 2
f 18/48/52 19/45/51 23/10/14 22/8/13
s 3
f 24/25/19 23/12/18 19/23/54 20/26/53
s 1
f 21/6/8 24/5/7 20/54/56 17/50/55
s off
f 25/57/57 26/58/58 28/59/59 27/60/60
f 27/61/61 28/62/62 30/63/63 29/64/64
f 29/65/65 30/66/66 32/67/67 31/68/68
f 31/69/69 32/70/70 26/71/71 25/72/72
f 26/73/73 32/74/74 30/75/75 28/76/76
f 31/77/77 25/78/78 27/79/79 29/80/80
f 33/81/81 34/82/82 36/83/83 35/84/84
f 35/85/85 36/86/86 38/87/87 37/88/88
f 37/89/89 38/90/90 40/91/91 39/92/92
f 39/93/93 40/94/94 34/95/95 33/96/96
f 34/97/97 40/98/98 38/99/99 36/100/100
f 39/101/101 33/102/102 35/103/103 37/104/104
f 41/105/105 42/106/106 44/107/107 43/108/108
f 43/109/109 44/110/110 46/111/111 45/112/112
f 45/113/113 46/114/114 48/115/115 47/116/116
f 47/117/117 48/118/118 42/119/119 41/120/120
f 42/121/121 48/122/122 46/123/123 44/124/124
f 47/125/125 41/126/126 43/127/127 45/128/128
f 49/129/129 50/130/130 52/131/131 51/132/132
s 9
f 51/133/133 52/134/134 72/135/135 69/136/136
s off
f 53/137/137 54/138/138 56/139/139 55/140/140
s 10
f 70/141/141 71/142/142 50/143/143 49/144/144
s 11
f 50/145/145 71/146/146 72/147/147 52/148/148
s 12
f 70/149/149 49/150/150 51/151/151 69/152/152
f 55/153/153 58/154/154 57/155/155 53/156/156
s 10
f 55/157/157 56/158/158 59/159/159 58/160/160
s 11
f 60/161/161 59/162/162 56/163/163 54/164/164
s 9
f 57/165/165 60/166/166 54/167/167 53/168/168
s 12
f 58/154/154 62/169/169 61/170/170 57/155/155
s 10
f 58/160/160 59/159/159 63/171/171 62/172/172
s 11
f 64/173/173 63/174/174 59/162/162 60/161/161
s 9
f 61/175/175 64/176/176 60/166/166 57/165/165
s 12
f 62/169/169 66/177/177 65/178/178 61/170/170
s 10
f 62/172/172 63/171/171 67/179/179 66/180/180
s 11
f 68/181/181 67/182/182 63/174/174 64/173/173
s 9
f 65/183/183 68/184/184 64/176/176 61/175/175
s 12
f 66/177/177 70/149/149 69/152/152 65/178/178
s 10
f 66/180/180 67/179/179 71/142/142 70/141/141
s 11
f 72/147/147 71/146/146 67/182/182 68/181/181
s 9
f 69/136/136 72/135/135 68/184/184 65/183/183
