# This file uses centimeters as units for non-parametric coordinates.

g default
v -0.026319 0.043321 0.019577
v 0.026320 0.043321 0.019577
v -0.026319 0.043321 -0.019577
v 0.026320 0.043321 -0.019577
v 0.032091 0.043321 -0.007957
v -0.032090 0.043321 -0.007957
v 0.032091 0.043321 0.007957
v -0.032090 0.043321 0.007957
v 0.010697 0.043321 0.023870
v 0.013121 0.050549 0.009760
v 0.013121 0.050549 -0.009760
v 0.010697 0.043321 -0.023870
v 0.013121 -0.043321 -0.009760
v 0.013121 -0.043321 0.009760
v -0.010697 0.043321 0.023870
v -0.013121 0.050549 0.009760
v -0.013121 0.050549 -0.009760
v -0.010697 0.043321 -0.023870
v -0.013121 -0.043321 -0.009760
v -0.013121 -0.043321 0.009760
v 0.013121 0.021661 0.029279
v -0.013121 0.021661 0.029279
v -0.032284 0.021661 0.024013
v -0.039363 0.021661 0.009760
v -0.039363 0.021661 -0.009760
v -0.032284 0.021661 -0.024013
v -0.013121 0.021661 -0.029279
v 0.013121 0.021661 -0.029279
v 0.032284 0.021661 -0.024013
v 0.039363 0.021661 -0.009760
v 0.039363 0.021661 0.009760
v 0.032284 0.021661 0.024013
v 0.013831 -0.000000 0.030862
v -0.013830 -0.000000 0.030862
v -0.034029 -0.000000 0.025312
v -0.041491 -0.000000 0.010287
v -0.041491 -0.000000 -0.010287
v -0.034029 -0.000000 -0.025312
v -0.013830 -0.000000 -0.030862
v 0.013831 -0.000000 -0.030862
v 0.034029 -0.000000 -0.025312
v 0.041491 -0.000000 -0.010287
v 0.041491 -0.000000 0.010287
v 0.034029 -0.000000 0.025312
v 0.013923 -0.024792 0.031068
v -0.013922 -0.024792 0.031068
v -0.034256 -0.024792 0.025481
v -0.041767 -0.024792 0.010356
v -0.041767 -0.024792 -0.010356
v -0.034256 -0.024792 -0.025481
v -0.013922 -0.024792 -0.031068
v 0.013923 -0.024792 -0.031068
v 0.034256 -0.024792 -0.025481
v 0.041768 -0.024792 -0.010356
v 0.041768 -0.024792 0.010356
v 0.034256 -0.024792 0.025481
v 0.000000 0.050549 0.012441
v 0.000000 0.043321 0.025162
v 0.000000 0.021661 0.030864
v 0.000000 -0.000000 0.032533
v 0.000000 -0.024792 0.032750
v 0.000000 -0.043321 0.010288
v 0.000000 -0.043321 -0.010288
v 0.000000 -0.024792 -0.032750
v 0.000000 -0.000000 -0.032533
v 0.000000 0.021661 -0.030864
v 0.000000 0.043321 -0.025162
v 0.000000 0.050549 -0.012441
v 0.000000 0.059776 -0.012441
v 0.000000 0.059776 0.012441
v 0.013121 0.059776 0.009760
v 0.013121 0.059776 -0.009760
v -0.013121 0.059776 0.009760
v -0.013121 0.059776 -0.009760
v 0.000000 0.059776 -0.007201
v 0.000000 0.059776 0.007201
v 0.007988 0.059776 0.005569
v 0.007988 0.059776 -0.005569
v -0.007987 0.059776 0.005569
v -0.007987 0.059776 -0.005569
v 0.000000 0.078736 -0.007201
v 0.000000 0.078736 0.007201
v 0.007988 0.078736 0.005569
v 0.007988 0.078736 -0.005569
v -0.007987 0.078736 0.005569
v -0.007987 0.078736 -0.005569
v 0.000000 0.082075 -0.007201
v 0.000000 0.084943 0.007201
v 0.007988 0.083239 0.005569
v 0.007988 0.082075 -0.005569
v -0.007987 0.083239 0.005569
v -0.007987 0.082075 -0.005569
v 0.006444 0.078736 0.024235
v 0.000000 0.078736 0.025867
v 0.006444 0.082075 0.024235
v 0.000000 0.082075 0.025867
v -0.006444 0.078736 0.024235
v -0.006444 0.082075 0.024235
v -0.028443 -0.043321 0.019350
v -0.032869 -0.037817 0.024449
v -0.012041 -0.043321 0.023791
v -0.013361 -0.037769 0.029815
v -0.028393 -0.043321 -0.019290
v -0.032869 -0.037817 -0.024449
v -0.012039 -0.043321 -0.023782
v -0.013361 -0.037769 -0.029815
v -0.033848 -0.043321 -0.008466
v -0.040072 -0.037853 -0.009936
v 0.028443 -0.043321 -0.019350
v 0.032870 -0.037817 -0.024449
v 0.040073 -0.037853 -0.009936
v 0.033849 -0.043321 -0.008466
v -0.033846 -0.043321 0.008465
v -0.040072 -0.037851 0.009936
v 0.040073 -0.037851 0.009936
v 0.033847 -0.043321 0.008465
v 0.028393 -0.043321 0.019290
v 0.032870 -0.037817 0.024449
v 0.013361 -0.037769 -0.029815
v 0.012040 -0.043321 -0.023782
v 0.012040 -0.043321 0.023782
v 0.013361 -0.037769 0.029815
v 0.000000 -0.043321 -0.025237
v 0.000000 -0.037763 -0.031430
v 0.000000 -0.037763 0.031430
v 0.000000 -0.043321 0.025237
vt 0.406965 0.304988
vt 0.458606 0.311025
vt 0.715376 0.563046
vt 0.358005 0.319975
vt 0.289867 0.345929
vt 0.621550 0.563046
vt 0.204613 0.405427
vt 0.239326 0.364973
vt 0.529163 0.314154
vt 0.580971 0.312159
vt 0.628548 0.331177
vt 0.812678 0.563046
vt 0.906504 0.563046
vt 0.694336 0.362666
vt 0.774393 0.429010
vt 0.743137 0.385825
vt 0.493922 0.309842
vt 0.764028 0.563046
vt 0.086522 0.498988
vt 0.951156 0.478435
vt 0.978775 0.462169
vt 0.099724 0.454162
vt 0.181731 0.435480
vt 0.572899 0.563046
vt 0.462449 0.440032
vt 0.462449 0.523316
vt 0.518160 0.521178
vt 0.518160 0.442170
vt 0.497244 0.231819
vt 0.536777 0.234508
vt 0.395554 0.231128
vt 0.457378 0.231934
vt 0.335604 0.248379
vt 0.257229 0.276296
vt 0.196528 0.303872
vt 0.143034 0.347313
vt 0.840565 0.376185
vt 0.108214 0.378636
vt 0.790840 0.328471
vt 0.732623 0.295976
vt 0.656779 0.261686
vt 0.598467 0.239407
vt 0.500074 0.159349
vt 0.544730 0.162574
vt 0.385803 0.163735
vt 0.455417 0.159314
vt 0.317372 0.179782
vt 0.230922 0.210773
vt 0.164859 0.243164
vt 0.100375 0.282757
vt 0.888426 0.315378
vt 0.057430 0.309016
vt 0.827415 0.270583
vt 0.764277 0.232848
vt 0.680647 0.194907
vt 0.613800 0.173167
vt 0.503486 0.078031
vt 0.553965 0.081632
vt 0.375430 0.087713
vt 0.452985 0.077170
vt 0.298769 0.100547
vt 0.203993 0.135092
vt 0.135392 0.170867
vt 0.064918 0.204204
vt 0.930126 0.240033
vt 0.975412 0.264403
vt 0.862749 0.200942
vt 0.797371 0.159585
vt 0.705699 0.117602
vt 0.630391 0.098488
vt 0.406736 0.442170
vt 0.406736 0.521178
vt 0.077510 0.543081
vt 0.931705 0.503790
vt 0.724229 0.485818
vt 0.754519 0.471127
vt 0.759923 0.498156
vt 0.723693 0.504641
vt 0.833131 0.515933
vt 0.807420 0.524312
vt 0.196700 0.500058
vt 0.190692 0.527823
vt 0.161825 0.466175
vt 0.144496 0.530964
vt 0.181133 0.562518
vt 0.142420 0.550217
vt 0.988060 0.449777
vt 0.997203 0.420751
vt 0.123849 0.449257
vt 0.094274 0.499261
vt 0.918343 0.511520
vt 0.096249 0.558845
vt 0.877575 0.406994
vt 0.916602 0.394163
vt 0.913204 0.403926
vt 0.889501 0.408688
vt 0.871691 0.433941
vt 0.881619 0.431453
vt 0.318734 0.447409
vt 0.369275 0.046308
vt 0.289367 0.058035
vt 0.411319 0.385375
vt 0.341678 0.403351
vt 0.450763 0.034004
vt 0.341890 0.559752
vt 0.505369 0.035796
vt 0.411327 0.577934
vt 0.120432 0.132127
vt 0.051113 0.161562
vt 0.318725 0.515940
vt 0.513570 0.577934
vt 0.188779 0.095111
vt 0.004690 0.178681
vt 0.583218 0.559997
vt 0.606171 0.515940
vt 0.880907 0.163573
vt 0.815820 0.120916
vt 0.606162 0.447409
vt 0.513570 0.385414
vt 0.947638 0.198790
vt 0.718475 0.076068
vt 0.583007 0.403596
vt 0.639958 0.057851
vt 0.654191 0.027864
vt 0.559735 0.039371
vt 0.462449 0.583825
vt 0.991985 0.219444
vt 0.018164 0.224699
vt 0.507008 0.000000
vt 0.569567 0.008005
vt 0.956432 0.164992
vt 1.000000 0.182794
vt 0.000000 0.141418
vt 0.462449 0.379523
vt 0.731316 0.050501
vt 0.824726 0.094274
vt 0.889771 0.131261
vt 0.181540 0.066911
vt 0.278817 0.032539
vt 0.045105 0.127174
vt 0.114247 0.098874
vt 0.443766 0.002099
vt 0.357632 0.015506
vt 0.889633 0.397270
vt 0.613243 0.557510
vt 0.638051 0.551981
vt 0.141932 0.482354
vt 0.614130 0.510365
vt 0.694862 0.469548
vt 0.687888 0.496082
vt 0.639535 0.520275
vt 0.686586 0.432802
vt 0.572899 0.593023
vt 0.955154 0.593023
vt 0.567221 0.385598
vt 0.621550 0.593023
vt 0.764028 0.593023
vt 0.715376 0.593023
vt 0.906504 0.593023
vt 0.812678 0.593023
vt 0.256451 0.459511
vt 0.718268 0.478627
vt 0.955154 0.563046
vt 0.794712 0.460852
vt 0.291814 0.416457
vt 0.872670 0.410287
vt 0.929051 0.345134
vt 0.491038 0.379684
vt 0.414682 0.379236
vt 0.831421 0.563055
vt 0.806977 0.556024
vt 0.236195 0.536945
vt 0.888458 0.517154
vt 0.000000 0.477382
vt 0.192033 0.605603
vt 0.198488 0.586329
vt 0.024234 0.438218
vt 0.229703 0.472780
vt 0.922410 0.370234
vt 0.847244 0.436873
vt 0.003031 0.523294
vt 0.233120 0.452835
vt 0.095244 0.574183
vt 0.130553 0.435278
vn -0.492750 0.537639 0.684209
vn -0.199943 0.532508 0.822470
vn -0.486631 0.808752 0.330319
vn -0.749744 0.639483 0.170137
vn -0.749744 0.639482 -0.170137
vn -0.486630 0.808753 -0.330319
vn -0.199942 0.532509 -0.822470
vn -0.492750 0.537638 -0.684210
vn 0.199944 0.532508 0.822470
vn 0.492747 0.537639 0.684211
vn 0.749745 0.639482 0.170136
vn 0.486632 0.808753 0.330314
vn 0.486631 0.808754 -0.330314
vn 0.749745 0.639482 -0.170136
vn 0.199944 0.532509 -0.822470
vn 0.492747 0.537639 -0.684211
vn -0.000000 0.532733 0.846283
vn 0.000000 0.627956 0.778249
vn -0.000000 0.909534 -0.415630
vn -0.000000 0.999913 0.013177
vn 0.523133 0.852251 0.000459
vn 0.461881 0.826392 -0.322090
vn -0.000000 0.532734 -0.846283
vn 0.000000 0.627956 -0.778249
vn 0.000000 -1.000000 0.000000
vn 0.000000 -1.000000 0.000000
vn 0.000000 -1.000000 0.000000
vn 0.000000 -1.000000 -0.000000
vn -0.000000 0.161091 0.986940
vn 0.205546 0.164584 0.964709
vn -0.590311 0.195403 0.783167
vn -0.205545 0.164584 0.964709
vn -0.957415 0.207395 0.200858
vn -0.957415 0.207394 -0.200858
vn -0.590311 0.195403 -0.783167
vn -0.205545 0.164584 -0.964709
vn 0.205546 0.164584 -0.964709
vn -0.000000 0.161091 -0.986940
vn 0.590312 0.195401 -0.783167
vn 0.957417 0.207389 -0.200855
vn 0.957417 0.207390 0.200855
vn 0.590312 0.195401 0.783167
vn -0.000000 0.039959 0.999201
vn 0.207723 0.040698 0.977341
vn -0.598076 0.049438 0.799913
vn -0.207721 0.040698 0.977341
vn -0.977384 0.052205 0.204929
vn -0.977384 0.052205 -0.204928
vn -0.598077 0.049438 -0.799912
vn -0.207721 0.040698 -0.977341
vn 0.207723 0.040698 -0.977341
vn -0.000000 0.039959 -0.999201
vn 0.598075 0.049440 -0.799914
vn 0.977382 0.052216 -0.204932
vn 0.977382 0.052216 0.204933
vn 0.598074 0.049440 0.799914
vn -0.000000 -0.028611 0.999591
vn 0.207931 -0.029250 0.977706
vn -0.599263 -0.035128 0.799781
vn -0.207929 -0.029251 0.977707
vn -0.978041 -0.037393 0.205032
vn -0.978040 -0.037394 -0.205036
vn -0.599269 -0.035130 -0.799777
vn -0.207929 -0.029251 -0.977707
vn 0.207931 -0.029250 -0.977706
vn -0.000000 -0.028611 -0.999591
vn 0.599264 -0.035125 -0.799780
vn 0.978038 -0.037385 -0.205045
vn 0.978039 -0.037384 0.205042
vn 0.599259 -0.035124 0.799784
vn 0.000000 -1.000000 0.000000
vn 0.000000 -1.000000 -0.000000
vn -0.461881 0.826392 -0.322090
vn -0.523132 0.852252 0.000459
vn 0.860888 0.000000 0.508794
vn 0.000000 0.000000 1.000000
vn 0.860888 0.000000 -0.508795
vn 0.000000 0.000000 -1.000000
vn -0.860883 0.000000 0.508803
vn -0.860882 0.000000 -0.508804
vn 0.000000 1.000000 0.000000
vn 0.000000 1.000000 0.000000
vn 0.000000 1.000000 0.000000
vn 0.000000 1.000000 0.000000
vn 0.000000 1.000000 0.000000
vn 0.000000 1.000000 0.000000
vn 0.000000 1.000000 0.000000
vn 0.000000 1.000000 0.000000
vn 0.000000 1.000000 0.000000
vn 0.000000 1.000000 0.000000
vn 0.000000 1.000000 0.000000
vn 0.000000 1.000000 0.000000
vn 0.000000 0.000000 1.000000
vn 0.847818 0.000000 0.530288
vn 0.915749 0.000000 0.401752
vn 0.000000 0.000000 1.000000
vn 0.847818 0.000000 -0.530288
vn 0.853117 0.000000 -0.521721
vn 0.000000 0.000000 -1.000000
vn 0.000000 0.000000 -1.000000
vn -0.847817 0.000000 -0.530289
vn -0.847817 0.000000 0.530288
vn -0.915748 0.000000 0.401753
vn -0.853116 0.000000 -0.521721
vn -0.000000 0.000000 1.000000
vn 0.943695 0.000000 0.330817
vn 0.529256 0.815713 0.233453
vn -0.000000 0.956491 0.291763
vn -0.943695 0.000000 0.330818
vn -0.529255 0.815714 0.233453
vn 0.000000 -1.000000 -0.000000
vn 0.000000 -1.000000 0.000000
vn 0.000000 -1.000000 0.000000
vn 0.000000 -1.000000 -0.000000
vn 0.000000 -1.000000 -0.000000
vn 0.000000 -1.000000 -0.000000
vn -0.192321 -0.943602 0.269495
vn -0.554258 -0.347853 0.756172
vn -0.913206 -0.360616 0.189767
vn -0.239387 -0.969701 0.048732
vn -0.060347 -0.955040 0.290270
vn -0.192889 -0.353525 0.915322
vn 0.000060 -0.958590 0.284789
vn 0.000048 -0.352602 0.935773
vn -0.191764 -0.943873 -0.268944
vn -0.553998 -0.348883 -0.755889
vn -0.193086 -0.354548 -0.914885
vn -0.060743 -0.954954 -0.290470
vn -0.239667 -0.969614 -0.049083
vn -0.912948 -0.361182 -0.189932
vn 0.000000 -0.352699 -0.935737
vn 0.000001 -0.958568 -0.284863
vn 0.192248 -0.943596 -0.269568
vn 0.554218 -0.347921 -0.756171
vn 0.913195 -0.360645 -0.189764
vn 0.239421 -0.969693 -0.048719
vn 0.060322 -0.955083 -0.290135
vn 0.192876 -0.353703 -0.915256
vn 0.912944 -0.361181 0.189950
vn 0.239644 -0.969619 0.049101
vn 0.553989 -0.348913 0.755881
vn 0.191803 -0.943865 0.268942
vn 0.193087 -0.354549 0.914884
vn 0.060744 -0.954954 0.290472
s 1
g pCube6
f 1/1/1 15/2/2 16/169/3 8/4/4
f 6/5/5 17/165/6 18/7/7 3/8/8
f 8/4/4 16/169/3 17/165/6 6/5/5
f 9/9/9 2/10/10 7/11/11 10/155/12
f 11/152/13 10/155/12 7/11/11 5/14/14
f 12/15/15 11/152/13 5/14/14 4/16/16
f 58/17/17 9/9/9 10/155/12 57/168/18
s 3
f 87/19/19 88/174/20 89/177/21 90/22/22
s 1
f 67/164/23 68/162/24 11/152/13 12/15/15
f 62/25/25 63/26/26 13/27/27 14/28/28
f 58/17/17 59/29/29 21/30/30 9/9/9
f 23/31/31 22/32/32 15/2/2 1/1/1
f 24/33/33 23/31/31 1/1/1 8/4/4
f 25/34/34 24/33/33 8/4/4 6/5/5
f 26/35/35 25/34/34 6/5/5 3/8/8
f 3/8/8 18/7/7 27/36/36 26/35/35
f 28/37/37 66/166/38 67/164/23 12/15/15
f 29/39/39 28/37/37 12/15/15 4/16/16
f 5/14/14 30/40/40 29/39/39 4/16/16
f 7/11/11 31/41/41 30/40/40 5/14/14
f 32/42/42 31/41/41 7/11/11 2/10/10
f 9/9/9 21/30/30 32/42/42 2/10/10
f 59/29/29 60/43/43 33/44/44 21/30/30
f 35/45/45 34/46/46 22/32/32 23/31/31
f 36/47/47 35/45/45 23/31/31 24/33/33
f 37/48/48 36/47/47 24/33/33 25/34/34
f 38/49/49 37/48/48 25/34/34 26/35/35
f 26/35/35 27/36/36 39/50/50 38/49/49
f 40/51/51 65/167/52 66/166/38 28/37/37
f 41/53/53 40/51/51 28/37/37 29/39/39
f 30/40/40 42/54/54 41/53/53 29/39/39
f 31/41/41 43/55/55 42/54/54 30/40/40
f 44/56/56 43/55/55 31/41/41 32/42/42
f 32/42/42 21/30/30 33/44/44 44/56/56
f 60/43/43 61/57/57 45/58/58 33/44/44
f 47/59/59 46/60/60 34/46/46 35/45/45
f 48/61/61 47/59/59 35/45/45 36/47/47
f 49/62/62 48/61/61 36/47/47 37/48/48
f 50/63/63 49/62/62 37/48/48 38/49/49
f 38/49/49 39/50/50 51/64/64 50/63/63
f 52/65/65 64/66/66 65/167/52 40/51/51
f 53/67/67 52/65/65 40/51/51 41/53/53
f 42/54/54 54/68/68 53/67/67 41/53/53
f 43/55/55 55/69/69 54/68/68 42/54/54
f 56/70/70 55/69/69 43/55/55 44/56/56
f 44/56/56 33/44/44 45/58/58 56/70/70
f 15/2/2 58/17/17 57/168/18 16/169/3
f 15/2/2 22/32/32 59/29/29 58/17/17
f 22/32/32 34/46/46 60/43/43 59/29/29
f 34/46/46 46/60/60 61/57/57 60/43/43
f 20/71/71 19/72/72 63/26/26 62/25/25
f 65/52/52 64/128/66 51/64/64 39/50/50
f 66/38/38 65/52/52 39/50/50 27/36/36
f 67/23/23 66/38/38 27/36/36 18/7/7
f 18/7/7 17/165/6 68/161/24 67/23/23
s 3
f 92/73/73 91/181/74 88/174/20 87/19/19
s 1
f 57/18/18 10/12/12 71/160/75 70/157/76
f 10/12/12 11/13/13 72/159/77 71/160/75
f 11/13/13 68/163/24 69/154/78 72/159/77
f 17/6/6 16/3/3 73/158/79 74/156/80
f 16/3/3 57/18/18 70/157/76 73/158/79
f 68/24/24 17/6/6 74/156/80 69/153/78
s 5
f 70/75/81 71/76/82 77/77/83 76/78/84
f 71/76/82 72/79/85 78/80/86 77/77/83
f 72/79/85 69/170/87 75/171/88 78/80/86
f 74/148/89 73/149/90 79/150/91 80/151/92
f 73/149/90 70/75/81 76/78/84 79/150/91
f 69/145/87 74/148/89 80/151/92 75/146/88
s 3
f 76/82/93 77/81/94 83/178/95 82/172/96
f 77/81/94 78/83/97 84/89/98 83/178/95
f 78/83/97 75/147/99 81/90/100 84/89/98
f 80/86/101 79/85/102 85/176/103 86/92/104
f 79/85/102 76/82/93 82/172/96 85/176/103
f 75/84/99 80/86/101 86/92/104 81/90/100
f 94/144/105 93/94/106 95/95/107 96/96/108
f 83/178/95 84/89/98 90/184/22 89/182/21
f 84/89/98 81/90/100 87/19/19 90/22/22
f 86/92/104 85/176/103 91/175/74 92/183/73
f 97/97/109 94/93/105 96/96/108 98/98/110
f 81/90/100 86/92/104 92/73/73 87/19/19
s 8
f 82/88/111 83/87/112 93/94/113 94/179/114
s 3
f 83/87/95 89/21/21 95/95/107 93/94/106
f 89/21/21 88/20/20 96/96/108 95/95/107
s 8
f 85/91/115 82/173/111 94/180/114 97/97/116
s 3
f 88/20/20 91/74/74 98/98/110 96/96/108
f 91/74/74 85/91/103 97/97/109 98/98/110
s 1
f 99/143/117 100/100/118 114/101/119 113/139/120
f 100/100/118 99/143/117 101/142/121 102/104/122
f 102/104/122 101/142/121 126/129/123 125/106/124
f 103/141/125 104/108/126 106/109/127 105/140/128
f 104/108/126 103/141/125 107/138/129 108/112/130
f 105/140/128 106/109/127 124/113/131 123/133/132
f 108/112/130 107/138/129 113/139/120 114/101/119
f 109/137/133 110/116/134 111/117/135 112/136/136
f 110/116/134 109/137/133 120/131/137 119/120/138
f 112/136/136 111/117/135 115/121/139 116/135/140
f 116/135/140 115/121/139 118/123/141 117/124/142
f 117/124/142 118/123/141 122/125/143 121/130/144
f 119/120/138 120/131/137 123/132/132 124/127/131
f 121/130/144 122/125/143 125/106/124 126/129/123
f 100/100/118 102/104/122 46/60/60 47/59/59
f 50/63/63 51/64/64 106/109/127 104/108/126
f 113/99/120 20/71/71 101/102/121 99/103/117
f 118/123/141 115/121/139 55/69/69 56/70/70
f 114/101/119 100/100/118 47/59/59 48/61/61
f 104/108/126 108/112/130 49/62/62 50/63/63
f 103/105/125 105/107/128 19/72/72 107/110/129
f 54/68/68 111/117/135 110/116/134 53/67/67
f 108/112/130 114/101/119 48/61/61 49/62/62
f 107/110/129 19/72/72 20/71/71 113/99/120
f 55/69/69 115/121/139 111/117/135 54/68/68
f 119/120/138 52/65/65 53/67/67 110/116/134
f 13/27/27 120/111/137 109/114/133 112/115/136
f 14/28/28 13/27/27 112/115/136 116/118/140
f 121/119/144 14/28/28 116/118/140 117/122/142
f 56/70/70 45/58/58 122/125/143 118/123/141
f 124/127/131 64/66/66 52/65/65 119/120/138
f 63/26/26 123/126/132 120/111/137 13/27/27
f 126/134/123 62/25/25 14/28/28 121/119/144
f 61/57/57 125/106/124 122/125/143 45/58/58
f 46/60/60 102/104/122 125/106/124 61/57/57
f 101/102/121 20/71/71 62/25/25 126/134/123
f 19/72/72 105/107/128 123/126/132 63/26/26
f 106/109/127 51/64/64 64/128/66 124/113/131
