# This file uses centimeters as units for non-parametric coordinates.

g default
v 235.718065 0.000000 269.994080
v 235.718065 270.000000 269.994080
v 235.718065 270.000000 24.786407
v 235.718065 0.000000 24.786407
v 235.381029 0.000000 25.743105
v 240.036059 0.000000 30.398123
v 235.381029 270.000031 25.743105
v 240.036059 270.000031 30.398123
v 266.417711 0.000000 25.743105
v 261.762682 0.000000 30.398123
v 266.417711 270.000031 25.743105
v 261.762682 270.000031 30.398123
v 261.762682 270.000031 -0.638455
v 266.417711 270.000031 4.016566
v 266.417711 0.000000 4.016566
v 261.762682 0.000000 -0.638455
v 235.718065 0.000000 -0.005859
v 505.718004 0.000000 -0.005859
v 235.718065 270.000000 -0.005859
v 505.718004 270.000000 -0.005859
v 480.925768 270.000000 -0.005859
v 480.925768 0.000000 -0.005859
v 505.718004 0.000000 5.219387
v 503.478991 0.000000 7.458458
v 503.478991 270.000000 7.458458
v 505.718004 270.000000 5.219387
v 483.164782 0.000000 7.458458
v 480.925768 0.000000 5.219387
v 480.925768 270.000000 5.219387
v 483.164782 270.000000 7.458458
vt 0.001299 0.048374
vt 0.001299 0.982870
vt 0.849985 0.982870
vt 0.849985 0.048374
vt 0.878136 0.993073
vt 0.878136 0.049077
vt 0.919595 0.049077
vt 0.919595 0.993073
vt 0.932157 0.993073
vt 0.932157 0.049077
vt 0.973617 0.049077
vt 0.973617 0.993073
vt 0.865573 0.049077
vt 0.865573 0.993073
vt 0.986179 0.993073
vt 0.986179 0.049077
vt 0.890535 0.996361
vt 0.890535 0.044961
vt 0.960256 0.044961
vt 0.960256 0.996361
vt 0.001299 0.048374
vt 0.849985 0.048374
vt 0.849985 0.982870
vt 0.001299 0.982870
vt 0.993479 0.044961
vt 0.993479 0.996361
vt 0.977593 0.996361
vt 0.977593 0.044961
vt 0.855428 0.996361
vt 0.855428 0.044961
vt 0.881631 0.044961
vt 0.881631 0.996361
vn 1.000000 0.000000 0.000000
vn 1.000000 0.000000 0.000000
vn 1.000000 0.000000 0.000000
vn 1.000000 0.000000 0.000000
vn 0.000000 0.000000 1.000000
vn 0.000000 0.000000 1.000000
vn 0.000000 0.000000 1.000000
vn 0.000000 0.000000 1.000000
vn 1.000000 0.000000 0.000000
vn 1.000000 0.000000 0.000000
vn 1.000000 0.000000 0.000000
vn 1.000000 0.000000 0.000000
vn -0.707106 0.000000 0.707108
vn -0.707106 0.000000 0.707108
vn -0.707106 0.000000 0.707108
vn -0.707106 0.000000 0.707108
vn 0.707106 0.000000 0.707108
vn 0.707106 0.000000 0.707108
vn 0.707106 0.000000 0.707108
vn 0.707106 0.000000 0.707108
vn 0.707106 0.000000 -0.707107
vn 0.707106 0.000000 -0.707107
vn 0.707106 0.000000 -0.707107
vn 0.707106 0.000000 -0.707107
vn 0.000000 0.000000 1.000000
vn 0.000000 0.000000 1.000000
vn 0.000000 0.000000 1.000000
vn 0.000000 0.000000 1.000000
vn 0.000000 0.000000 1.000000
vn 0.000000 0.000000 1.000000
vn 0.000000 0.000000 1.000000
vn 0.000000 0.000000 1.000000
vn 1.000000 0.000000 0.000000
vn 1.000000 0.000000 0.000000
vn 1.000000 0.000000 0.000000
vn 1.000000 0.000000 0.000000
vn -1.000000 0.000000 0.000000
vn -1.000000 0.000000 0.000000
vn -1.000000 0.000000 0.000000
vn -1.000000 0.000000 0.000000
vn 0.707116 0.000000 0.707098
vn 0.707116 0.000000 0.707098
vn 0.707116 0.000000 0.707098
vn 0.707116 0.000000 0.707098
vn -0.707116 0.000000 0.707098
vn -0.707116 0.000000 0.707098
vn -0.707116 0.000000 0.707098
vn -0.707116 0.000000 0.707098
s off
g pasted__pasted__pasted__pPlane1
f 1/1/1 4/4/2 3/3/3 2/2/4
f 8/5/5 6/6/6 10/7/7 12/8/8
f 11/9/9 9/10/10 15/11/11 14/12/12
f 5/13/13 6/6/14 8/5/15 7/14/16
f 10/7/17 9/10/18 11/9/19 12/8/20
f 13/15/21 14/12/22 15/11/23 16/16/24
f 30/17/25 27/18/26 24/19/27 25/20/28
f 17/21/29 22/22/30 21/23/31 19/24/32
f 18/25/33 20/26/34 26/27/35 23/28/36
f 21/29/37 22/30/38 28/31/39 29/32/40
f 24/19/41 23/28/42 26/27/43 25/20/44
f 28/31/45 27/18/46 30/17/47 29/32/48
