# This file uses centimeters as units for non-parametric coordinates.

g default
v -874.999939 0.000000 -10.676044
v -605.000000 0.000000 -10.676044
v -874.999939 270.000000 -10.676013
v -605.000000 270.000000 -10.676044
v -629.792236 270.000000 -10.676044
v -629.792236 0.000000 -10.676044
v -605.000000 0.000000 -5.450797
v -607.239014 0.000000 -3.211726
v -607.239014 270.000000 -3.211726
v -605.000000 270.000000 -5.450797
v -627.553223 0.000000 -3.211726
v -629.792236 0.000000 -5.450797
v -629.792236 270.000000 -5.450797
v -627.553223 270.000000 -3.211726
v -666.728760 270.000000 -10.676044
v -666.728760 0.000000 -10.676044
v -788.479248 270.000000 -10.676036
v -788.479248 0.000000 -10.676044
v -874.999939 205.541992 -10.676036
v -788.479248 205.541992 -10.676036
v -666.728760 205.541992 -10.676044
v -629.792236 205.541992 -10.676044
v -629.792297 205.541992 -5.450797
v -627.553162 205.541992 -3.211726
v -607.239014 205.541992 -3.211726
v -605.000000 205.541992 -5.450797
v -605.000000 205.541992 -10.676044
v -674.793945 196.073364 -3.478805
v -674.793945 0.000000 -3.478805
v -780.413879 196.073364 -3.478805
v -780.413879 0.000000 -3.478805
v -668.168091 204.102692 -3.478805
v -666.728760 205.541992 -4.918109
v -666.728760 0.000000 -4.918109
v -668.168091 0.000000 -3.478805
v -787.039795 204.102692 -3.478805
v -788.479248 205.541992 -4.918109
v -787.039795 0.000000 -3.478805
v -788.479248 0.000000 -4.918109
v -605.000000 0.000000 -16.545980
v -874.999939 0.000000 -16.545980
v -605.000000 270.000000 -16.545980
v -874.999939 270.000000 -16.545980
v -850.207703 270.000000 -16.545980
v -850.207703 0.000000 -16.545980
v -874.999939 0.000000 -21.771227
v -872.760925 0.000000 -24.010298
v -872.760925 270.000000 -24.010298
v -874.999939 270.000000 -21.771227
v -852.446716 0.000000 -24.010298
v -850.207703 0.000000 -21.771227
v -850.207703 270.000000 -21.771227
v -852.446716 270.000000 -24.010298
v -788.479065 270.000000 -16.545980
v -788.479065 0.000000 -16.545980
v -666.728577 270.000000 -16.545980
v -666.728577 0.000000 -16.545980
v -605.000000 205.541992 -16.545980
v -666.728577 205.541992 -16.545980
v -788.479065 205.541992 -16.545980
v -850.207703 205.541992 -16.545980
v -850.207642 205.541992 -21.771227
v -852.446777 205.541992 -24.010298
v -872.760925 205.541992 -24.010298
v -874.999939 205.541992 -21.771227
v -874.999939 205.541992 -16.545980
v -780.413879 196.073364 -23.743219
v -780.413879 0.000000 -23.743219
v -674.793945 196.073364 -23.743219
v -674.793945 0.000000 -23.743219
v -787.039734 204.102692 -23.743219
v -788.479065 205.541992 -22.303915
v -788.479065 0.000000 -22.303915
v -787.039734 0.000000 -23.743219
v -668.168030 204.102692 -23.743219
v -666.728577 205.541992 -22.303915
v -668.168030 0.000000 -23.743219
v -666.728577 0.000000 -22.303915
vt 0.001299 0.048374
vt 0.001299 0.982870
vt 0.849985 0.982870
vt 0.993479 0.044961
vt 0.993479 0.996361
vt 0.977593 0.044961
vt 0.855428 0.996361
vt 0.849985 0.048374
vt 0.881631 0.996361
vt 0.890535 0.044961
vt 0.960256 0.996361
vt 0.960256 0.044961
vt 0.977593 0.996361
vt 0.881631 0.044961
vt 0.890535 0.996361
vt 0.855428 0.044961
vt 0.720049 0.982870
vt 0.720049 0.048374
vt 0.292079 0.982870
vt 0.001299 0.759469
vt 0.855428 0.707710
vt 0.849985 0.759469
vt 0.881631 0.707710
vt 0.890535 0.707710
vt 0.960256 0.707710
vt 0.977593 0.707710
vt 0.993479 0.707710
vt 0.376520 0.685354
vt 0.355093 0.038813
vt 0.545181 0.006476
vt 0.326390 0.675332
vt 0.572757 0.634822
vt 0.311905 0.675332
vt 0.436446 0.615686
vt 0.617168 0.654676
vt 0.720049 0.759469
vt 0.604923 0.654676
vt 0.583304 0.314631
vt 0.292079 0.759469
vt 0.604923 0.022896
vt 0.311905 0.025908
vt 0.292079 0.048374
vt 0.563433 0.615351
vt 0.558409 0.615351
vt 0.617168 0.022896
vt 0.326390 0.025908
vt 0.300280 0.675332
vt 0.558409 0.290719
vt 0.563433 0.290719
vt 0.300280 0.025908
vt 0.630716 0.022896
vt 0.539907 0.615351
vt 0.539907 0.290719
vt 0.630716 0.654676
vt 0.890535 0.996361
vt 0.890535 0.707710
vt 0.960256 0.707710
vt 0.960256 0.996361
vt 0.639627 0.759469
vt 0.849985 0.759469
vt 0.849985 0.982870
vt 0.639627 0.982870
vt 0.993479 0.707710
vt 0.993479 0.996361
vt 0.977593 0.996361
vt 0.977593 0.707710
vt 0.855428 0.996361
vt 0.855428 0.707710
vt 0.881631 0.707710
vt 0.881631 0.996361
vt 0.211657 0.759469
vt 0.211657 0.982870
vt 0.001299 0.759469
vt 0.001299 0.982870
vt 0.001299 0.048374
vt 0.211657 0.048374
vt 0.639627 0.048374
vt 0.849985 0.048374
vt 0.855428 0.044961
vt 0.881631 0.044961
vt 0.890535 0.044961
vt 0.960256 0.044961
vt 0.977593 0.044961
vt 0.993479 0.044961
vt 0.455572 0.007832
vt 0.573084 0.634822
vt 0.436446 0.232693
vt 0.583326 0.313502
vt 0.474609 0.683958
vt 0.536935 0.046242
vt 0.563455 0.614222
vt 0.558432 0.614222
vt 0.558432 0.289590
vt 0.563455 0.299519
vt 0.603144 0.654676
vt 0.590899 0.654676
vt 0.590899 0.022896
vt 0.603144 0.022896
vt 0.566936 0.689697
vt 0.448986 0.694339
vt 0.448986 0.039951
vt 0.493184 0.039951
vt 0.616693 0.022896
vt 0.616693 0.654676
vt 0.539929 0.614222
vt 0.539929 0.289590
vt 0.430041 0.694339
vt 0.430041 0.039951
vt 0.509927 0.232693
vt 0.536935 0.679769
vt 0.474609 0.006476
vt 0.455572 0.685354
vt 0.583326 0.594836
vt 0.583304 0.595965
vt 0.545181 0.683958
vt 0.573084 0.032675
vt 0.376520 0.007832
vt 0.355093 0.657476
vt 0.509927 0.615686
vt 0.572757 0.032675
vt 0.566936 0.046242
vt 0.493184 0.694339
vn 0.000000 0.000000 1.000000
vn 0.000000 0.000000 1.000000
vn 0.000000 0.000000 1.000000
vn 0.000000 0.000000 1.000000
vn 0.000000 0.000000 1.000000
vn 0.000000 0.000000 1.000000
vn 0.000000 0.000000 1.000000
vn 0.000000 0.000000 1.000000
vn 1.000000 0.000000 0.000000
vn 1.000000 0.000000 0.000000
vn 1.000000 0.000000 0.000000
vn 1.000000 0.000000 0.000000
vn -1.000000 0.000000 -0.000006
vn -1.000000 0.000000 -0.000006
vn -1.000000 0.000000 -0.000006
vn -1.000000 0.000000 -0.000006
vn 0.707116 0.000000 0.707098
vn 0.707116 0.000000 0.707098
vn 0.707116 0.000000 0.707098
vn 0.707116 0.000000 0.707098
vn -0.707106 0.000000 0.707107
vn -0.707106 0.000000 0.707107
vn -0.707106 0.000000 0.707107
vn -0.707106 0.000000 0.707107
vn 0.000000 -0.000000 1.000000
vn 0.000000 -0.000000 1.000000
vn 0.000000 -0.000000 1.000000
vn 0.000000 -0.000000 1.000000
vn 0.000000 -0.000000 1.000000
vn 0.000000 -0.000000 1.000000
vn 0.000000 0.000000 1.000000
vn 0.000000 0.000000 1.000000
vn -1.000000 0.000000 -0.000006
vn -1.000000 0.000000 -0.000006
vn -0.707106 0.000000 0.707107
vn -0.707106 0.000000 0.707107
vn 0.000000 0.000000 1.000000
vn 0.000000 0.000000 1.000000
vn 0.707116 0.000000 0.707098
vn 0.707116 0.000000 0.707098
vn 1.000000 0.000000 0.000000
vn 1.000000 0.000000 0.000000
vn -1.000000 0.000000 0.000000
vn -1.000000 0.000000 0.000000
vn -1.000000 0.000000 0.000000
vn -1.000000 0.000000 0.000000
vn 0.000000 -1.000000 0.000000
vn 0.000000 -1.000000 0.000000
vn 0.000000 -1.000000 0.000000
vn 0.000000 -1.000000 0.000000
vn 0.000000 0.707107 0.707107
vn 0.000000 0.707107 0.707107
vn 0.000000 0.707107 0.707106
vn 0.000000 0.707107 0.707106
vn 0.707100 0.000000 0.707113
vn 0.707100 0.000000 0.707113
vn 0.707100 0.000000 0.707113
vn 0.707100 0.000000 0.707113
vn -0.707070 0.000000 0.707143
vn -0.707070 0.000000 0.707143
vn -0.707070 0.000000 0.707143
vn -0.707070 0.000000 0.707143
vn -0.000000 0.000000 1.000000
vn -0.000000 0.000000 1.000000
vn -0.000000 0.000000 1.000000
vn -0.000000 0.000000 1.000000
vn 0.000000 0.000000 1.000000
vn 0.000000 0.000000 1.000000
vn 0.000000 0.000000 1.000000
vn 0.000000 0.000000 1.000000
vn 1.000000 0.000000 0.000000
vn 1.000000 0.000000 0.000000
vn 1.000000 0.000000 0.000000
vn 1.000000 0.000000 0.000000
vn 0.000000 1.000000 0.000000
vn 0.000000 1.000000 0.000000
vn 0.000000 1.000000 0.000000
vn 0.000000 1.000000 0.000000
vn -1.000000 0.000000 0.000000
vn -1.000000 0.000000 0.000000
vn -1.000000 0.000000 0.000000
vn -1.000000 0.000000 0.000000
vn 0.000000 0.000000 -1.000000
vn 0.000000 0.000000 -1.000000
vn 0.000000 0.000000 -1.000000
vn 0.000000 0.000000 -1.000000
vn 0.000000 0.000000 -1.000000
vn 0.000000 0.000000 -1.000000
vn 0.000000 0.000000 -1.000000
vn 0.000000 0.000000 -1.000000
vn -1.000000 0.000000 0.000000
vn -1.000000 0.000000 0.000000
vn -1.000000 0.000000 0.000000
vn -1.000000 0.000000 0.000000
vn 1.000000 0.000001 0.000006
vn 1.000000 0.000000 0.000006
vn 1.000000 0.000000 0.000006
vn 1.000000 0.000001 0.000006
vn -0.707116 0.000000 -0.707098
vn -0.707116 0.000000 -0.707098
vn -0.707116 0.000000 -0.707098
vn -0.707116 0.000000 -0.707098
vn 0.707106 0.000000 -0.707107
vn 0.707106 0.000000 -0.707107
vn 0.707106 0.000000 -0.707107
vn 0.707106 0.000000 -0.707107
vn 0.000000 0.000000 -1.000000
vn 0.000000 0.000000 -1.000000
vn 0.000000 0.000000 -1.000000
vn 0.000000 0.000000 -1.000000
vn 0.000000 0.000000 -1.000000
vn 0.000000 0.000000 -1.000000
vn 0.000000 0.000000 -1.000000
vn 0.000000 0.000000 -1.000000
vn 1.000000 -0.000000 0.000006
vn 1.000000 -0.000000 0.000006
vn 0.707106 0.000000 -0.707107
vn 0.707106 0.000000 -0.707107
vn 0.000000 0.000000 -1.000000
vn 0.000000 0.000000 -1.000000
vn -0.707116 0.000000 -0.707098
vn -0.707116 0.000000 -0.707098
vn -1.000000 0.000000 0.000000
vn -1.000000 0.000000 0.000000
vn 1.000000 0.000000 0.000000
vn 1.000000 0.000000 0.000000
vn 1.000000 0.000000 0.000000
vn 1.000000 0.000000 0.000000
vn 0.000000 0.707107 -0.707106
vn 0.000000 0.707107 -0.707106
vn 0.000000 0.707107 -0.707106
vn 0.000000 0.707107 -0.707106
vn -0.707100 0.000000 -0.707113
vn -0.707100 0.000000 -0.707113
vn -0.707100 0.000000 -0.707113
vn -0.707100 0.000000 -0.707113
vn 0.707070 0.000000 -0.707143
vn 0.707070 0.000000 -0.707143
vn 0.707070 0.000000 -0.707143
vn 0.707070 0.000000 -0.707143
vn 0.000000 0.000000 -1.000000
vn 0.000000 0.000000 -1.000000
vn 0.000000 0.000000 -1.000000
vn 0.000000 0.000000 -1.000000
vn -0.000000 0.000000 -1.000000
vn -0.000000 0.000000 -1.000000
vn -0.000000 0.000000 -1.000000
vn -0.000000 0.000000 -1.000000
vn -1.000000 0.000000 0.000000
vn -1.000000 0.000000 0.000000
vn -1.000000 0.000000 0.000000
vn -1.000000 0.000000 0.000000
vn 0.000000 1.000000 0.000000
vn 0.000000 1.000000 0.000000
vn 0.000000 1.000000 0.000000
vn 0.000000 1.000000 0.000000
vn 1.000000 0.000000 0.000000
vn 1.000000 0.000000 0.000000
vn 1.000000 0.000000 0.000000
vn 1.000000 0.000000 0.000000
s 1
g pPlane7
f 14/15/1 24/24/2 25/25/3 9/11/4
s 2
f 21/36/5 22/22/6 5/3/7 15/17/8
s 3
f 27/27/9 4/5/10 10/13/11 26/26/12
s 4
f 5/7/13 22/21/14 23/23/15 13/9/16
s 5
f 25/25/17 26/26/18 10/13/19 9/11/20
s 6
f 23/23/21 24/24/22 14/15/23 13/9/24
s 2
f 20/39/25 21/36/5 15/17/8 17/19/26
f 19/20/27 20/39/25 17/19/26 3/2/28
f 1/1/29 18/42/30 20/39/25 19/20/27
f 16/18/31 6/8/32 22/22/6 21/36/5
s 4
f 23/23/15 22/21/14 6/16/33 12/14/34
s 6
f 12/14/35 11/10/36 24/24/22 23/23/21
s 1
f 25/25/3 24/24/2 11/10/37 8/12/38
s 5
f 8/12/39 7/6/40 26/26/18 25/25/17
s 3
f 2/4/41 27/27/9 26/26/12 7/6/42
s off
f 70/111/43 29/30/44 28/115/45 69/89/46
f 28/34/47 30/87/48 67/109/49 69/119/50
f 32/43/51 33/44/52 37/48/53 36/49/54
f 33/35/55 32/37/56 35/40/57 34/45/58
f 36/31/59 37/33/60 39/41/61 38/46/62
s 7
f 35/40/63 32/37/64 28/32/65 29/120/66
f 32/43/64 36/49/67 30/38/68 28/114/65
f 36/31/67 38/46/69 31/29/70 30/118/68
s off
f 16/51/71 21/54/72 33/35/73 34/45/74
f 21/52/75 20/53/76 37/48/77 33/44/78
f 20/47/79 18/50/80 39/41/81 37/33/82
s 8
f 53/55/83 63/56/84 64/57/85 48/58/86
s 9
f 60/59/87 61/60/88 44/61/89 54/62/90
s 10
f 66/63/91 43/64/92 49/65/93 65/66/94
s 11
f 44/67/95 61/68/96 62/69/97 52/70/98
s 12
f 64/57/99 65/66/100 49/65/101 48/58/102
s 13
f 62/69/103 63/56/104 53/55/105 52/70/106
s 9
f 59/71/107 60/59/87 54/62/90 56/72/108
f 58/73/109 59/71/107 56/72/108 42/74/110
f 40/75/111 57/76/112 59/71/107 58/73/109
f 55/77/113 45/78/114 61/60/88 60/59/87
s 11
f 62/69/97 61/68/96 45/79/115 51/80/116
s 13
f 51/80/117 50/81/118 63/56/104 62/69/103
s 8
f 64/57/85 63/56/84 50/81/119 47/82/120
s 12
f 47/82/121 46/83/122 65/66/100 64/57/99
s 10
f 41/84/123 66/63/91 65/66/94 46/83/124
s off
f 31/117/125 68/85/126 67/112/127 30/28/128
f 71/91/129 72/92/130 76/93/131 75/94/132
f 72/95/133 71/96/134 74/97/135 73/98/136
f 75/122/137 76/100/138 78/101/139 77/102/140
s 14
f 74/97/141 71/96/142 67/86/143 68/116/144
f 71/91/142 75/94/145 69/88/146 67/113/143
f 75/99/145 77/121/147 70/90/148 69/110/146
s off
f 55/103/149 60/104/150 72/95/151 73/98/152
f 60/105/153 59/106/154 76/93/155 72/92/156
f 59/107/157 57/108/158 78/101/159 76/100/160
