# This file uses centimeters as units for non-parametric coordinates.

g default
v 610.497549 0.000000 -0.005859
v 880.497509 0.000000 -0.005859
v 610.497549 270.000000 -0.005859
v 880.497509 270.000000 -0.005859
v 855.705224 270.000000 -0.005859
v 855.705224 0.000000 -0.005859
v 880.497509 0.000000 5.219387
v 878.258455 0.000000 7.458458
v 878.258455 270.000000 7.458458
v 880.497509 270.000000 5.219387
v 857.944294 0.000000 7.458458
v 855.705224 0.000000 5.219387
v 855.705224 270.000000 5.219387
v 857.944294 270.000000 7.458458
vt 0.001299 0.048374
vt 0.001299 0.982870
vt 0.849985 0.982870
vt 0.993479 0.044961
vt 0.993479 0.996361
vt 0.977593 0.044961
vt 0.855428 0.996361
vt 0.849985 0.048374
vt 0.881631 0.996361
vt 0.890535 0.044961
vt 0.960256 0.996361
vt 0.960256 0.044961
vt 0.977593 0.996361
vt 0.881631 0.044961
vt 0.890535 0.996361
vt 0.855428 0.044961
vn -0.000000 0.000000 1.000000
vn -0.000000 0.000000 1.000000
vn -0.000000 0.000000 1.000000
vn -0.000000 0.000000 1.000000
vn -0.000000 0.000000 1.000000
vn -0.000000 0.000000 1.000000
vn -0.000000 0.000000 1.000000
vn -0.000000 0.000000 1.000000
vn 1.000000 0.000000 0.000000
vn 1.000000 0.000000 0.000000
vn 1.000000 0.000000 0.000000
vn 1.000000 0.000000 0.000000
vn -1.000000 0.000000 -0.000000
vn -1.000000 0.000000 -0.000000
vn -1.000000 0.000000 -0.000000
vn -1.000000 0.000000 -0.000000
vn 0.707109 0.000000 0.707104
vn 0.707109 0.000000 0.707104
vn 0.707109 0.000000 0.707104
vn 0.707109 0.000000 0.707104
vn -0.707107 0.000000 0.707107
vn -0.707107 0.000000 0.707107
vn -0.707107 0.000000 0.707107
vn -0.707107 0.000000 0.707107
s off
g pasted__pasted__pPlane1
f 14/15/1 11/10/2 8/12/3 9/11/4
f 1/1/5 6/8/6 5/3/7 3/2/8
f 2/4/9 4/5/10 10/13/11 7/6/12
f 5/7/13 6/16/14 12/14/15 13/9/16
f 8/12/17 7/6/18 10/13/19 9/11/20
f 12/14/21 11/10/22 14/15/23 13/9/24
